<svg width="269" height="116" viewBox="0 0 269 116" fill="none" xmlns="http://www.w3.org/2000/svg">
<path fill-rule="evenodd" clip-rule="evenodd" d="M18.3706 36.2354C15.1417 41.0541 15.8181 46.9639 22.2316 48.0698C26.8824 48.8647 34.3178 47.1416 44.5427 42.8907C45.1401 42.6439 45.7425 42.3871 46.3596 42.1255C35.6656 50.6964 25.7419 54.7943 16.5933 54.4191C8.10623 54.0587 -0.612868 50.4594 0.0339037 40.5011C1.58418 16.6693 42.7554 0.618493 63.4916 0.5C57.567 2.544 51.7954 5.00765 46.2214 7.87122C50.5414 7.32319 54.9108 7.27382 59.2457 7.71323C53.0791 9.5153 47.1051 11.9197 41.4076 14.887C45.7178 13.8354 50.1316 13.2478 54.5652 13.1293C42.9036 16.7878 25.4259 25.729 18.3706 36.2354ZM59.3 43.7597C62.519 38.941 61.8525 33.0312 55.4391 31.9252C50.6797 31.1057 43.0073 32.9275 32.4219 37.3907L31.6715 37.7116L31.3209 37.8597L31.6418 37.6079C31.859 37.4351 32.0813 37.2623 32.2985 37.0945C32.491 36.9463 32.6835 36.7982 32.8662 36.655C33.2217 36.3736 33.5772 36.107 33.9327 35.8454C33.9623 35.8256 33.9919 35.8009 34.0216 35.7812C43.6886 28.6223 52.7137 25.2205 61.0872 25.576C69.5743 25.9364 78.2934 29.5356 77.6466 39.4939C76.0963 63.3257 34.9251 79.3766 14.1938 79.5C20.1184 77.456 25.89 74.9923 31.4641 72.1288C27.1391 72.6768 22.7647 72.7262 18.4249 72.2868C24.5915 70.4798 30.5655 68.0803 36.263 65.113C31.9528 66.1646 27.539 66.7522 23.1054 66.8657C34.7671 63.2073 52.2398 54.2808 59.3 43.7597Z" fill="url(#paint0_linear)"/>
<path d="M119.815 45.9468C119.815 44.3472 119.247 43.103 118.107 42.2093C116.986 41.3157 115.006 40.3925 112.167 39.4396C109.328 38.4867 107.008 37.5635 105.206 36.6698C99.3404 33.7865 96.4077 29.8219 96.4077 24.7811C96.4077 22.268 97.1335 20.0611 98.585 18.1504C100.056 16.22 102.13 14.729 104.801 13.6675C107.472 12.5862 110.479 12.0481 113.816 12.0481C117.07 12.0481 119.983 12.6307 122.55 13.7909C125.142 14.9511 127.152 16.615 128.578 18.7725C130.01 20.9103 130.721 23.3592 130.721 26.1191H119.84C119.84 24.2726 119.272 22.8408 118.131 21.8237C117.011 20.8066 115.49 20.2981 113.564 20.2981C111.614 20.2981 110.074 20.7326 108.933 21.6065C107.813 22.4557 107.255 23.5468 107.255 24.8749C107.255 26.0351 107.877 27.0966 109.121 28.0495C110.365 28.9826 112.552 29.9602 115.678 30.9772C118.808 31.9746 121.375 33.0509 123.385 34.216C128.277 37.0401 130.721 40.9306 130.721 45.8876C130.721 49.8521 129.23 52.9626 126.243 55.2238C123.256 57.485 119.168 58.6157 113.964 58.6157C110.296 58.6157 106.968 57.9639 103.986 56.6556C101.024 55.3275 98.7874 53.5205 97.2717 51.2395C95.7807 48.9338 95.0352 46.2924 95.0352 43.3005H105.976C105.976 45.7296 106.598 47.5218 107.842 48.6869C109.106 49.8274 111.145 50.4002 113.964 50.4002C115.766 50.4002 117.188 50.0151 118.22 49.2498C119.287 48.4598 119.815 47.3588 119.815 45.9468Z" fill="white"/>
<path d="M163.612 44.1744L166.999 24.317H177.041L169.117 57.9986H160.26L154.696 38.0128L149.102 57.9986H140.245L132.32 24.317H142.363L145.69 44.6434L151.037 24.317H158.344L163.612 44.1744Z" fill="white"/>
<path d="M190.595 57.9937H180.089V24.3121H190.595V57.9937ZM179.467 15.6276C179.467 14.1317 180.005 12.9072 181.086 11.9543C182.163 11.0015 183.565 10.5226 185.283 10.5226C187.001 10.5226 188.403 11.0015 189.479 11.9543C190.556 12.9072 191.094 14.1317 191.094 15.6276C191.094 17.1236 190.556 18.348 189.479 19.3009C188.403 20.2538 187.001 20.7327 185.283 20.7327C183.565 20.7327 182.163 20.2538 181.086 19.3009C180.01 18.348 179.467 17.1236 179.467 15.6276Z" fill="white"/>
<path d="M198.119 57.9936V31.5994H193.236V24.317H198.119V21.6411C198.119 17.8 199.25 14.8228 201.506 12.7097C203.762 10.5966 206.937 9.5351 211.02 9.5351C212.511 9.5351 214.15 9.75234 215.933 10.1868L215.962 17.9086C215.32 17.721 214.461 17.6272 213.385 17.6272C210.215 17.6272 208.63 18.9948 208.63 21.7349V24.317H215.187V31.5994H208.63V57.9936H198.119Z" fill="white"/>
<path d="M229.796 15.9386V24.3121H235.331V31.5944H229.796V47.0034C229.796 48.2673 230.024 49.1511 230.478 49.6498C230.932 50.1484 231.836 50.3953 233.183 50.3953C234.22 50.3953 235.089 50.3311 235.795 50.2077V57.7073C233.909 58.3096 231.939 58.6108 229.89 58.6108C226.286 58.6108 223.62 57.7616 221.902 56.0583C220.184 54.3549 219.32 51.7728 219.32 48.3069V31.5895H215.029V24.3072H219.32V15.9337H229.796V15.9386Z" fill="white"/>
<path d="M251.652 43.3005L257.246 24.3121H268.469L254.758 63.6269L254.17 65.0587C252.22 69.4183 248.784 71.5955 243.852 71.5955C242.484 71.5955 241.042 71.3882 239.532 70.9735V63.4739H240.899C242.371 63.4739 243.491 63.2566 244.256 62.8221C245.042 62.4074 245.624 61.652 245.999 60.5511L246.839 58.3096L235.152 24.317H246.345L251.652 43.3005Z" fill="white"/>
<path d="M2.04208 107.13V101.385H5.04909C7.38289 101.385 8.37027 102.462 8.37027 104.28C8.37027 106.03 7.38289 107.13 5.04909 107.13H2.04208ZM10.4572 104.28C10.4572 101.722 8.72931 99.702 5.04909 99.702H0V115.343H2.04208V108.813H5.04909C8.93128 108.813 10.4572 106.658 10.4572 104.28ZM33.7077 104.302C33.7077 106.053 32.6979 107.309 30.3865 107.309H27.3795V101.385H30.3865C32.7203 101.385 33.7077 102.529 33.7077 104.302ZM25.3375 99.702V115.343H27.3795V108.947H29.848L33.5731 115.343H36.0191L32.092 108.79C34.7175 108.207 35.8171 106.299 35.8171 104.302C35.8171 101.744 34.0668 99.702 30.3865 99.702H25.3375ZM59.7475 99.6795H51.3324V115.343H59.7475V113.66H53.3745V108.274H59.0743V106.591H53.3745V101.363H59.7475V99.6795ZM80.0494 99.702H75.1798V115.343H80.0494C85.1882 115.343 88.3523 112.403 88.3523 107.556C88.3523 102.709 85.1882 99.702 80.0494 99.702ZM77.2219 113.66V101.363H80.0494C84.1335 101.363 86.2654 103.741 86.2654 107.556C86.2654 111.371 84.1335 113.66 80.0494 113.66H77.2219ZM103.388 115.343H105.43V99.702H103.388V115.343ZM120.49 107.511C120.49 112.201 123.923 115.478 128.299 115.478C131.687 115.478 134.38 113.795 135.547 110.788H133.101C132.248 112.65 130.588 113.705 128.299 113.705C125.023 113.705 122.577 111.326 122.577 107.511C122.577 103.674 125.023 101.295 128.299 101.295C130.588 101.295 132.248 102.35 133.101 104.235H135.547C134.38 101.205 131.687 99.5 128.299 99.5C123.923 99.5 120.49 102.821 120.49 107.511ZM149.964 101.363H154.25V115.343H156.292V101.363H160.556V99.702H149.964V101.363ZM175.412 115.343H177.454V99.702H175.412V115.343ZM208.222 107.511C208.222 102.821 204.789 99.5224 200.368 99.5224C195.969 99.5224 192.514 102.821 192.514 107.511C192.514 112.201 195.969 115.5 200.368 115.5C204.789 115.5 208.222 112.201 208.222 107.511ZM194.601 107.511C194.601 103.674 197.069 101.295 200.368 101.295C203.667 101.295 206.135 103.674 206.135 107.511C206.135 111.326 203.667 113.727 200.368 113.727C197.069 113.727 194.601 111.326 194.601 107.511ZM233.515 99.6795V112.112L225.302 99.6795H223.26V115.343H225.302V102.889L233.515 115.343H235.557V99.6795H233.515ZM261.545 111.079C261.545 105.29 253.108 107.803 253.108 103.764C253.108 102.081 254.432 101.205 256.115 101.25C258.022 101.273 259.01 102.462 259.144 103.517H261.388C261.141 101.138 259.189 99.5 256.204 99.5C253.108 99.5 251.021 101.25 251.021 103.831C251.021 109.643 259.481 106.95 259.481 111.169C259.481 112.65 258.314 113.772 256.339 113.772C254.162 113.772 253.242 112.471 253.108 111.169H250.931C250.976 113.75 253.197 115.5 256.339 115.5C259.728 115.5 261.545 113.301 261.545 111.079Z" fill="url(#paint1_linear)"/>
<defs>
<linearGradient id="paint0_linear" x1="-0.322412" y1="0.832962" x2="77.2889" y2="78.4444" gradientUnits="userSpaceOnUse">
<stop offset="0.1991" stop-color="#FF3364"/>
<stop offset="0.5104" stop-color="#BB34FF"/>
<stop offset="0.8072" stop-color="#3586FF"/>
</linearGradient>
<linearGradient id="paint1_linear" x1="106.235" y1="118.584" x2="106.235" y2="94.8972" gradientUnits="userSpaceOnUse">
<stop stop-color="#FF3364"/>
<stop offset="0.358025" stop-color="#BB34FF"/>
<stop offset="1" stop-color="#247CFF"/>
</linearGradient>
</defs>
</svg>
