<svg width="38" height="38" viewBox="0 0 38 38" fill="none" xmlns="http://www.w3.org/2000/svg">
<path d="M22.8091 22.0273L22.7059 21.6641H22.3282H21.9811H21.6446L21.5179 21.9759C21.1752 22.8197 20.6913 23.4248 20.0791 23.8231C19.4652 24.2224 18.6844 24.4381 17.7087 24.4381C15.9561 24.4381 14.52 23.7361 13.5127 22.5088C12.498 21.2727 11.8918 19.4686 11.8918 17.238C11.8918 15.1082 12.4749 13.3712 13.4457 12.1772C14.4095 10.9919 15.7777 10.3115 17.4351 10.3115C19.233 10.3115 20.5914 11.1643 21.233 12.6064L21.365 12.9031H21.6898H22.0369H22.5369V12.4031V10.7498H25.7359V19.5193C25.7359 20.2339 25.8959 20.8699 26.2534 21.3392C26.6243 21.8261 27.169 22.0814 27.8065 22.0814C28.8772 22.0814 29.6733 21.3574 30.175 20.3051C30.6757 19.2546 30.9361 17.7899 30.9361 16.0524C30.9361 12.6377 29.8153 9.79135 27.7803 7.7986C25.7465 5.80693 22.8462 4.71353 19.3718 4.71353C15.7361 4.71353 12.6491 5.99016 10.4711 8.22452C8.29411 10.4578 7.05888 13.6131 7.05888 17.3115C7.05888 21.0569 8.3049 24.1488 10.5938 26.3021C12.8793 28.4522 16.1527 29.6181 20.1204 29.6181C21.5076 29.6181 22.9483 29.472 23.9841 29.2503V31.4629C22.7726 31.7389 21.2573 31.9 19.7176 31.9C15.0504 31.9 11.2008 30.4165 8.52175 27.8618C5.84479 25.3091 4.29688 21.6497 4.29688 17.2177C4.29688 12.8422 5.84854 9.1711 8.49573 6.59366C11.1439 4.01522 14.921 2.5 19.4263 2.5C23.7224 2.5 27.2873 3.84397 29.7729 6.13592C32.2552 8.42475 33.6969 11.691 33.6969 15.6129C33.6969 18.4124 33.0162 20.6179 31.8392 22.1121C30.673 23.5925 28.9865 24.4191 26.8565 24.4191C24.636 24.4191 23.2194 23.47 22.8091 22.0273ZM15.6937 17.3647C15.6937 18.6105 15.9511 19.6723 16.4839 20.4375C17.0313 21.2238 17.8463 21.6596 18.8411 21.6596C19.8438 21.6596 20.6706 21.22 21.2293 20.4345C21.7747 19.6676 22.0429 18.6052 22.0429 17.3647C22.0429 16.1223 21.7691 15.0601 21.2215 14.2939C20.6614 13.5103 19.8356 13.0697 18.8411 13.0697C17.8469 13.0697 17.0319 13.5056 16.4844 14.2918C15.9514 15.0569 15.6937 16.1187 15.6937 17.3647Z" fill="white" stroke="white"/>
</svg>
