<svg width="169" height="138" viewBox="0 0 169 138" fill="none" xmlns="http://www.w3.org/2000/svg">
<path fill-rule="evenodd" clip-rule="evenodd" d="M121.328 7.783L84.862 0.046L84.129 0L47.441 7.931C44.743 8.513 43 10.413 43 12.773V39.907C43 54.22 49.518 66.542 61.352 74.6L83.153 89.446L83.778 89.823L85.088 89.805L107.429 74.601C119.261 66.545 125.779 54.224 125.779 39.906V12.627C125.779 10.255 124.031 8.353 121.328 7.783ZM48.338 12.087L82.232 4.76V39.764H47.252V12.772C47.251 12.416 47.962 12.168 48.338 12.087ZM105.035 71.085L86.484 83.71V44.015H121.309C120.189 55.122 114.518 64.63 105.035 71.085Z" fill="url(#paint0_linear)"/>
<path d="M5.28857 113.058H13.0645V116H1.62646V98.2266H5.28857V113.058ZM19.0703 116H15.4082V98.2266H19.0703V116ZM36.4287 110.08C36.2904 111.992 35.5824 113.498 34.3047 114.596C33.0352 115.695 31.3587 116.244 29.2754 116.244C26.9967 116.244 25.2023 115.479 23.8921 113.949C22.59 112.411 21.939 110.303 21.939 107.626V106.54C21.939 104.831 22.2401 103.325 22.8423 102.023C23.4445 100.721 24.3031 99.724 25.418 99.0322C26.541 98.3324 27.8431 97.9824 29.3242 97.9824C31.375 97.9824 33.027 98.5317 34.2803 99.6304C35.5335 100.729 36.2578 102.271 36.4531 104.257H32.791C32.7015 103.109 32.38 102.279 31.8267 101.767C31.2814 101.246 30.4473 100.985 29.3242 100.985C28.1035 100.985 27.188 101.425 26.5776 102.304C25.9754 103.174 25.6662 104.529 25.6499 106.369V107.711C25.6499 109.632 25.9388 111.036 26.5166 111.923C27.1025 112.81 28.0221 113.253 29.2754 113.253C30.4066 113.253 31.2489 112.997 31.8022 112.484C32.3638 111.964 32.6852 111.162 32.7666 110.08H36.4287ZM49.5269 108.297H42.4956V113.058H50.7476V116H38.8335V98.2266H50.7231V101.193H42.4956V105.429H49.5269V108.297ZM67.3491 116H63.687L56.5581 104.306V116H52.896V98.2266H56.5581L63.6992 109.945V98.2266H67.3491V116ZM79.7637 111.337C79.7637 110.645 79.5195 110.116 79.0312 109.75C78.543 109.376 77.6641 108.985 76.3945 108.578C75.125 108.163 74.12 107.756 73.3794 107.357C71.3612 106.267 70.3521 104.798 70.3521 102.951C70.3521 101.99 70.6206 101.136 71.1577 100.387C71.703 99.6304 72.4801 99.0404 73.4893 98.6172C74.5065 98.194 75.6458 97.9824 76.9072 97.9824C78.1768 97.9824 79.3079 98.2144 80.3008 98.6782C81.2936 99.134 82.0627 99.7809 82.6079 100.619C83.1613 101.457 83.438 102.41 83.438 103.476H79.7759C79.7759 102.662 79.5195 102.031 79.0068 101.583C78.4941 101.128 77.7739 100.9 76.8462 100.9C75.951 100.9 75.2552 101.091 74.7588 101.474C74.2624 101.848 74.0142 102.344 74.0142 102.963C74.0142 103.541 74.3031 104.025 74.8809 104.416C75.4668 104.806 76.3254 105.172 77.4565 105.514C79.5399 106.141 81.0576 106.918 82.0098 107.846C82.9619 108.773 83.438 109.929 83.438 111.312C83.438 112.851 82.8561 114.059 81.6924 114.938C80.5286 115.809 78.9621 116.244 76.9927 116.244C75.6255 116.244 74.3804 115.996 73.2573 115.5C72.1343 114.995 71.2757 114.307 70.6816 113.437C70.0957 112.566 69.8027 111.557 69.8027 110.409H73.4771C73.4771 112.37 74.6489 113.351 76.9927 113.351C77.8634 113.351 78.543 113.176 79.0312 112.826C79.5195 112.468 79.7637 111.972 79.7637 111.337ZM96.6216 108.297H89.5903V113.058H97.8423V116H85.9282V98.2266H97.8179V101.193H89.5903V105.429H96.6216V108.297ZM109.878 113.058H117.654V116H106.216V98.2266H109.878V113.058ZM133.584 107.516C133.584 109.266 133.275 110.8 132.657 112.118C132.038 113.437 131.151 114.454 129.996 115.17C128.848 115.886 127.53 116.244 126.041 116.244C124.568 116.244 123.253 115.89 122.098 115.182C120.942 114.474 120.047 113.465 119.412 112.155C118.777 110.836 118.456 109.323 118.448 107.614V106.735C118.448 104.985 118.761 103.447 119.388 102.121C120.022 100.786 120.914 99.7646 122.061 99.0566C123.217 98.3405 124.535 97.9824 126.016 97.9824C127.497 97.9824 128.812 98.3405 129.959 99.0566C131.115 99.7646 132.006 100.786 132.632 102.121C133.267 103.447 133.584 104.981 133.584 106.723V107.516ZM129.874 106.71C129.874 104.847 129.54 103.431 128.873 102.462C128.205 101.494 127.253 101.01 126.016 101.01C124.787 101.01 123.839 101.49 123.172 102.45C122.505 103.402 122.167 104.802 122.159 106.649V107.516C122.159 109.331 122.492 110.739 123.16 111.74C123.827 112.741 124.787 113.241 126.041 113.241C127.269 113.241 128.213 112.761 128.873 111.801C129.532 110.832 129.865 109.424 129.874 107.577V106.71ZM150.308 113.754C149.649 114.543 148.717 115.158 147.513 115.597C146.308 116.028 144.974 116.244 143.509 116.244C141.971 116.244 140.62 115.91 139.456 115.243C138.3 114.568 137.405 113.591 136.771 112.313C136.144 111.036 135.822 109.534 135.806 107.809V106.601C135.806 104.826 136.103 103.292 136.697 101.999C137.299 100.696 138.162 99.7036 139.285 99.02C140.416 98.3283 141.739 97.9824 143.252 97.9824C145.36 97.9824 147.008 98.487 148.196 99.4961C149.384 100.497 150.088 101.958 150.308 103.878H146.744C146.581 102.861 146.219 102.117 145.657 101.645C145.104 101.173 144.339 100.937 143.362 100.937C142.117 100.937 141.169 101.404 140.518 102.34C139.867 103.276 139.537 104.668 139.529 106.515V107.65C139.529 109.514 139.883 110.922 140.591 111.874C141.299 112.826 142.337 113.302 143.704 113.302C145.079 113.302 146.06 113.009 146.646 112.423V109.359H143.313V106.662H150.308V113.754ZM167.886 107.516C167.886 109.266 167.577 110.8 166.958 112.118C166.34 113.437 165.453 114.454 164.297 115.17C163.15 115.886 161.832 116.244 160.342 116.244C158.869 116.244 157.555 115.89 156.399 115.182C155.244 114.474 154.349 113.465 153.714 112.155C153.079 110.836 152.758 109.323 152.75 107.614V106.735C152.75 104.985 153.063 103.447 153.689 102.121C154.324 100.786 155.215 99.7646 156.363 99.0566C157.518 98.3405 158.837 97.9824 160.318 97.9824C161.799 97.9824 163.113 98.3405 164.261 99.0566C165.416 99.7646 166.307 100.786 166.934 102.121C167.569 103.447 167.886 104.981 167.886 106.723V107.516ZM164.175 106.71C164.175 104.847 163.842 103.431 163.174 102.462C162.507 101.494 161.555 101.01 160.318 101.01C159.089 101.01 158.141 101.49 157.474 102.45C156.806 103.402 156.469 104.802 156.46 106.649V107.516C156.46 109.331 156.794 110.739 157.461 111.74C158.129 112.741 159.089 113.241 160.342 113.241C161.571 113.241 162.515 112.761 163.174 111.801C163.833 110.832 164.167 109.424 164.175 107.577V106.71ZM30.4033 131.202C30.4033 130.787 30.2568 130.47 29.9639 130.25C29.6709 130.025 29.1436 129.791 28.3818 129.547C27.6201 129.298 27.0171 129.054 26.5728 128.814C25.3618 128.16 24.7563 127.279 24.7563 126.17C24.7563 125.594 24.9175 125.082 25.2397 124.632C25.5669 124.178 26.0332 123.824 26.6387 123.57C27.249 123.316 27.9326 123.189 28.6895 123.189C29.4512 123.189 30.1299 123.329 30.7256 123.607C31.3213 123.88 31.7827 124.269 32.1099 124.771C32.4419 125.274 32.6079 125.846 32.6079 126.485H30.4106C30.4106 125.997 30.2568 125.619 29.9492 125.35C29.6416 125.077 29.2095 124.94 28.6528 124.94C28.1157 124.94 27.6982 125.055 27.4004 125.284C27.1025 125.509 26.9536 125.807 26.9536 126.178C26.9536 126.524 27.127 126.815 27.4736 127.049C27.8252 127.284 28.3403 127.503 29.019 127.708C30.269 128.084 31.1797 128.551 31.751 129.107C32.3223 129.664 32.6079 130.357 32.6079 131.188C32.6079 132.11 32.2588 132.835 31.5605 133.363C30.8623 133.885 29.9224 134.146 28.7407 134.146C27.9204 134.146 27.1733 133.998 26.4995 133.7C25.8257 133.397 25.3105 132.984 24.9541 132.462C24.6025 131.939 24.4268 131.334 24.4268 130.646H26.6313C26.6313 131.822 27.3345 132.411 28.7407 132.411C29.2632 132.411 29.6709 132.306 29.9639 132.096C30.2568 131.881 30.4033 131.583 30.4033 131.202ZM40.1226 131.803H36.27L35.5376 134H33.2012L37.1709 123.336H39.207L43.1987 134H40.8623L40.1226 131.803ZM36.8633 130.023H39.5293L38.189 126.031L36.8633 130.023ZM47.0659 123.336L49.8052 131.07L52.5298 123.336H55.4155V134H53.2109V131.085L53.4307 126.053L50.5522 134H49.0435L46.1724 126.061L46.3921 131.085V134H44.1948V123.336H47.0659ZM59.5317 130.243V134H57.3345V123.336H61.4946C62.2954 123.336 62.9985 123.482 63.604 123.775C64.2144 124.068 64.6831 124.486 65.0103 125.028C65.3374 125.565 65.501 126.178 65.501 126.866C65.501 127.911 65.1421 128.736 64.4243 129.342C63.7114 129.942 62.7227 130.243 61.458 130.243H59.5317ZM59.5317 128.463H61.4946C62.0757 128.463 62.5176 128.326 62.8203 128.053C63.1279 127.779 63.2817 127.389 63.2817 126.881C63.2817 126.358 63.1279 125.936 62.8203 125.614C62.5127 125.292 62.0879 125.125 61.5459 125.116H59.5317V128.463ZM69.2144 132.235H73.8799V134H67.0171V123.336H69.2144V132.235ZM81.563 129.378H77.3442V132.235H82.2954V134H75.147V123.336H82.2808V125.116H77.3442V127.657H81.563V129.378ZM92.8496 131.202C92.8496 130.787 92.7031 130.47 92.4102 130.25C92.1172 130.025 91.5898 129.791 90.8281 129.547C90.0664 129.298 89.4634 129.054 89.019 128.814C87.8081 128.16 87.2026 127.279 87.2026 126.17C87.2026 125.594 87.3638 125.082 87.686 124.632C88.0132 124.178 88.4795 123.824 89.085 123.57C89.6953 123.316 90.3789 123.189 91.1357 123.189C91.8975 123.189 92.5762 123.329 93.1719 123.607C93.7676 123.88 94.229 124.269 94.5562 124.771C94.8882 125.274 95.0542 125.846 95.0542 126.485H92.8569C92.8569 125.997 92.7031 125.619 92.3955 125.35C92.0879 125.077 91.6558 124.94 91.0991 124.94C90.562 124.94 90.1445 125.055 89.8467 125.284C89.5488 125.509 89.3999 125.807 89.3999 126.178C89.3999 126.524 89.5732 126.815 89.9199 127.049C90.2715 127.284 90.7866 127.503 91.4653 127.708C92.7153 128.084 93.626 128.551 94.1973 129.107C94.7686 129.664 95.0542 130.357 95.0542 131.188C95.0542 132.11 94.7051 132.835 94.0068 133.363C93.3086 133.885 92.3687 134.146 91.187 134.146C90.3667 134.146 89.6196 133.998 88.9458 133.7C88.272 133.397 87.7568 132.984 87.4004 132.462C87.0488 131.939 86.873 131.334 86.873 130.646H89.0776C89.0776 131.822 89.7808 132.411 91.187 132.411C91.7095 132.411 92.1172 132.306 92.4102 132.096C92.7031 131.881 92.8496 131.583 92.8496 131.202ZM102.569 131.803H98.7163L97.9839 134H95.6475L99.6172 123.336H101.653L105.645 134H103.309L102.569 131.803ZM99.3096 130.023H101.976L100.635 126.031L99.3096 130.023ZM109.512 123.336L112.251 131.07L114.976 123.336H117.862V134H115.657V131.085L115.877 126.053L112.999 134H111.49L108.619 126.061L108.838 131.085V134H106.641V123.336H109.512ZM121.978 130.243V134H119.781V123.336H123.941C124.742 123.336 125.445 123.482 126.05 123.775C126.661 124.068 127.129 124.486 127.457 125.028C127.784 125.565 127.947 126.178 127.947 126.866C127.947 127.911 127.588 128.736 126.871 129.342C126.158 129.942 125.169 130.243 123.904 130.243H121.978ZM121.978 128.463H123.941C124.522 128.463 124.964 128.326 125.267 128.053C125.574 127.779 125.728 127.389 125.728 126.881C125.728 126.358 125.574 125.936 125.267 125.614C124.959 125.292 124.534 125.125 123.992 125.116H121.978V128.463ZM131.661 132.235H136.326V134H129.463V123.336H131.661V132.235ZM144.009 129.378H139.791V132.235H144.742V134H137.593V123.336H144.727V125.116H139.791V127.657H144.009V129.378Z" fill="#A5A5A5"/>
<defs>
<linearGradient id="paint0_linear" x1="84.3895" y1="0" x2="84.3895" y2="89.823" gradientUnits="userSpaceOnUse">
<stop stop-color="#FFA500"/>
<stop offset="0.545517" stop-color="#E0A600"/>
</linearGradient>
</defs>
</svg>
