<svg width="217" height="42" viewBox="0 0 217 42" fill="none" xmlns="http://www.w3.org/2000/svg">
<path d="M24.9235 15.575H14.589V12.3068C14.589 10.2466 14.4908 8.9571 14.2944 8.43831C14.098 7.91958 13.6316 7.66019 12.8952 7.66016C12.257 7.66019 11.8233 7.88252 11.5942 8.32715C11.3651 8.77184 11.2505 9.91311 11.2505 11.751V29.0258C11.2505 30.6414 11.3651 31.7049 11.5942 32.2162C11.8233 32.7276 12.2815 32.9833 12.9689 32.9833C13.7216 32.9833 14.2331 32.6943 14.5031 32.1162C14.7731 31.5382 14.9081 30.4117 14.9081 28.7368V24.4681H12.8216V18.9989H24.9235V38.3191H18.4184L17.4611 35.7401C16.7574 36.8518 15.8696 37.6855 14.7977 38.2413C13.7257 38.7971 12.4615 39.0751 11.0051 39.0751C9.27036 39.0751 7.64613 38.6934 6.13237 37.9301C4.6186 37.1667 3.46896 36.2219 2.68344 35.0954C1.89791 33.9689 1.40696 32.7869 1.21059 31.5493C1.0142 30.3116 0.916014 28.4552 0.916016 25.98V15.286C0.916014 11.8474 1.12058 9.34988 1.52971 7.79356C1.93883 6.23729 3.11302 4.8107 5.05228 3.51376C6.99153 2.21688 9.49947 1.56842 12.5761 1.56839C15.6036 1.56842 18.1157 2.13165 20.1122 3.25808C22.1087 4.38457 23.4097 5.72224 24.0153 7.27108C24.6208 8.81999 24.9235 11.0692 24.9235 14.0187V15.575ZM36.6568 20.2439H27.3533V18.2652C27.3533 15.9826 27.6438 14.2226 28.2247 12.9849C28.8057 11.7473 29.9717 10.6542 31.7228 9.70558C33.4738 8.75701 35.7485 8.28271 38.547 8.28267C41.9018 8.28271 44.8597 8.81999 46.5617 9.89455C48.2637 10.9692 49.2865 12.2883 49.6302 13.852C49.9738 15.4157 50.1457 18.6358 50.1457 23.5121V38.3191H40.0689V35.6957C39.4634 36.748 38.682 37.5373 37.7246 38.0635C36.7673 38.5896 35.6258 38.8527 34.3003 38.8527C32.5655 38.8527 30.9741 38.4118 29.5257 37.5299C28.0774 36.648 27.3533 34.7174 27.3533 31.7382V29.3149C27.3533 27.1064 27.7379 25.602 28.507 24.8016C29.2762 24.0012 31.1827 23.0675 34.2266 22.0003C37.4832 20.8442 39.2261 20.0661 39.4552 19.6659C39.6843 19.2657 39.7989 18.4505 39.7989 17.2202C39.7989 15.6788 39.6721 14.6746 39.4184 14.2077C39.1647 13.7409 38.7433 13.5074 38.1542 13.5074C37.4832 13.5074 37.0659 13.7038 36.9023 14.0965C36.7386 14.4893 36.6568 15.5083 36.6568 17.1536V20.2439ZM39.7989 24.2903C38.2115 25.3426 37.291 26.2245 37.0373 26.936C36.7836 27.6474 36.6568 28.6701 36.6568 30.0041C36.6568 31.5307 36.7673 32.5164 36.9882 32.961C37.2091 33.4057 37.6469 33.628 38.3015 33.628C38.9234 33.628 39.3284 33.4539 39.5166 33.1056C39.7048 32.7573 39.7989 31.842 39.7989 30.3598V24.2903ZM62.9227 8.81626L62.7509 11.6176C63.52 10.506 64.4365 9.67226 65.5002 9.11641C66.5639 8.56062 67.7749 8.28271 69.1332 8.28267C71.7844 8.28271 73.8709 9.39435 75.3929 11.6176C76.2275 10.506 77.1684 9.67226 78.2158 9.11641C79.2632 8.56062 80.4251 8.28271 81.7016 8.28267C83.3872 8.28271 84.7823 8.65326 85.887 9.39432C86.9916 10.1354 87.6993 11.0433 88.0103 12.1178C88.3212 13.1924 88.4767 14.9377 88.4767 17.3536V38.3191H78.8541V19.0878C78.854 16.5681 78.7599 15.0081 78.5718 14.4078C78.3835 13.8075 77.9458 13.5074 77.2585 13.5074C76.5548 13.5074 76.1006 13.8038 75.8961 14.3967C75.6915 14.9896 75.5892 16.5533 75.5892 19.0878V38.3191H65.9666V19.5769C65.9666 16.6867 65.8889 14.9525 65.7334 14.3745C65.5779 13.7964 65.1483 13.5074 64.4447 13.5074C64.0028 13.5074 63.6264 13.6593 63.3155 13.9631C63.0045 14.267 62.8327 14.6376 62.8 15.0748C62.7672 15.512 62.7509 16.4421 62.7509 17.865V38.3191H52.8061V8.81626H62.9227ZM114.374 24.0902H101.536V30.471C101.536 31.8049 101.642 32.6646 101.855 33.05C102.068 33.4353 102.477 33.628 103.083 33.628C103.835 33.628 104.339 33.3724 104.592 32.861C104.846 32.3496 104.973 31.3603 104.973 29.8929V26.0022H114.374V28.181C114.374 30.0041 114.248 31.4047 113.994 32.383C113.74 33.3612 113.147 34.4062 112.214 35.5178C111.281 36.6294 110.099 37.4632 108.667 38.019C107.235 38.5748 105.439 38.8527 103.279 38.8527C101.184 38.8527 99.3349 38.5785 97.7311 38.0301C96.1274 37.4817 94.8795 36.7295 93.9876 35.7735C93.0957 34.8175 92.478 33.7651 92.1343 32.6164C91.7906 31.4678 91.6188 29.7966 91.6188 27.6029V18.9989C91.6188 16.4199 92.0034 14.3856 92.7725 12.896C93.5417 11.4064 94.8018 10.2651 96.5529 9.47213C98.3039 8.67919 100.317 8.28271 102.592 8.28267C105.374 8.28271 107.669 8.76071 109.477 9.71669C111.285 10.6727 112.554 11.94 113.282 13.5185C114.01 15.097 114.374 17.3166 114.374 20.1772V24.0902ZM104.433 19.2879V17.1313C104.433 15.6047 104.343 14.619 104.163 14.1744C103.983 13.7297 103.614 13.5074 103.058 13.5074C102.371 13.5074 101.945 13.6964 101.781 14.0743C101.618 14.4523 101.536 15.4713 101.536 17.1313V19.2879H104.433Z" fill="white"/>
<path d="M139.83 12.3924H130.232V9.72446C130.232 8.47945 130.109 7.68649 129.863 7.34555C129.618 7.00469 129.209 6.83423 128.636 6.8342C128.014 6.83423 127.544 7.06397 127.225 7.52341C126.905 7.98292 126.746 8.67955 126.746 9.6133C126.746 10.8139 126.926 11.718 127.286 12.3257C127.63 12.9334 128.603 13.6671 130.207 14.5267C134.806 17.002 137.702 19.0326 138.897 20.6185C140.092 22.2045 140.689 24.7612 140.689 28.2888C140.689 30.853 140.357 32.7428 139.695 33.9582C139.032 35.1735 137.751 36.1926 135.853 37.0152C133.955 37.8378 131.745 38.2491 129.225 38.2491C126.459 38.2491 124.099 37.7748 122.143 36.8262C120.188 35.8776 118.907 34.6696 118.301 33.2023C117.696 31.7349 117.393 29.6524 117.393 26.9548V24.5982H126.991V28.978C126.991 30.3268 127.126 31.1939 127.396 31.5793C127.666 31.9646 128.145 32.1573 128.832 32.1573C129.52 32.1573 130.031 31.9128 130.367 31.4236C130.702 30.9345 130.87 30.2083 130.87 29.2448C130.87 27.1253 130.551 25.7395 129.912 25.0873C129.258 24.4352 127.646 23.3457 125.077 21.8191C122.507 20.2776 120.483 19.1586 119.649 18.4619C118.814 17.7653 118.123 16.8019 117.574 15.5717C117.026 14.3415 116.752 12.7704 116.752 10.8583C116.752 8.1015 117.141 5.64799 117.918 4.37327C118.695 3.09863 119.951 2.10186 121.686 1.38297C123.421 0.664149 125.838 0.304721 128.292 0.304688C130.976 0.304721 133.263 0.697497 135.153 1.48302C137.044 2.26861 138.295 3.25797 138.909 4.4511C139.523 5.64429 139.83 8.10891 139.83 10.9695V12.3924ZM154.546 4.05511V7.6074H157.329V12.2763H154.546V29.1559C154.546 31.0975 154.656 32.1796 154.877 32.4019C155.098 32.6242 155.589 32.7354 157.209 32.7354V37.4932H153.208C150.95 37.4932 149.338 37.4079 148.372 37.2375C147.407 37.067 146.556 36.6743 145.819 36.0592C145.083 35.444 144.625 34.74 144.445 33.947C144.265 33.1541 144.175 31.2902 144.175 28.3555V12.2763H142.039V7.6074H144.175V4.05511H154.546ZM182.165 18.3508V25.5764C182.165 28.2295 182.018 30.1749 181.723 31.4125C181.429 32.6501 180.799 33.8063 179.833 34.8808C178.867 35.9554 177.628 36.7484 176.114 37.2597C174.6 37.7711 172.861 38.0267 170.898 38.0267C168.705 38.0267 166.847 37.8081 165.325 37.3709C163.803 36.9336 162.621 36.2741 161.778 35.3922C160.935 34.5103 160.334 33.4431 159.974 32.1907C159.614 30.9382 159.434 29.0596 159.434 26.5547V18.9955C159.434 16.2535 159.761 14.1117 160.416 12.5703C161.07 11.0288 162.249 9.79119 163.951 8.85739C165.653 7.92364 167.829 7.45675 170.48 7.45671C172.706 7.45675 174.617 7.75689 176.212 8.35714C177.808 8.95746 179.039 9.7393 179.907 10.7027C180.774 11.6661 181.367 12.6592 181.686 13.6819C182.005 14.7046 182.165 16.2609 182.165 18.3508ZM172.248 16.1275C172.248 14.6157 172.158 13.6634 171.978 13.2706C171.798 12.8778 171.413 12.6814 170.824 12.6814C170.235 12.6814 169.842 12.8778 169.646 13.2706C169.449 13.6634 169.351 14.6157 169.351 16.1275V29.4449C169.351 30.8382 169.449 31.746 169.646 32.1684C169.842 32.5908 170.227 32.8021 170.799 32.8021C171.389 32.8021 171.777 32.6094 171.965 32.224C172.154 31.8386 172.248 31.0086 172.248 29.7339V16.1275ZM195.006 7.9903L194.835 10.5915C195.718 9.53922 196.692 8.75366 197.756 8.23487C198.82 7.71613 199.981 7.45675 201.242 7.45671C207.126 7.23917 209.18 10.5225 209.25 16.1497V28.5778C209.25 31.2606 209.074 33.1689 208.722 34.3028C206.773 38.259 201.443 38.886 197.707 37.2486C196.659 36.7298 195.702 35.9591 194.835 34.9364V41.6952H184.917V7.9903H195.006ZM197.829 16.5722C197.829 14.7491 197.756 13.6449 197.609 13.2595C197.461 12.8741 197.052 12.6814 196.381 12.6814C195.727 12.6814 195.305 12.9038 195.117 13.3484C194.929 13.7931 194.835 14.8677 194.835 16.5722V28.8002C194.835 30.5788 194.933 31.6904 195.129 32.1351C195.326 32.5797 195.751 32.8021 196.406 32.8021C197.044 32.8021 197.441 32.5983 197.596 32.1907C197.752 31.7831 197.829 30.7937 197.829 29.2226V16.5722Z" fill="#FD0000"/>
<path d="M212.57 7.86674V5.18842H213.736C213.97 5.18842 214.148 5.21249 214.27 5.26058C214.392 5.30869 214.489 5.39365 214.562 5.51544C214.635 5.63724 214.671 5.77183 214.671 5.91921C214.671 6.10921 214.611 6.26937 214.49 6.39969C214.37 6.53001 214.183 6.61284 213.931 6.64816C214.023 6.69322 214.093 6.73768 214.141 6.78152C214.242 6.87653 214.339 6.99527 214.429 7.13778L214.887 7.86674H214.449L214.101 7.30952C214 7.14875 213.916 7.02572 213.85 6.94046C213.785 6.8552 213.726 6.79553 213.674 6.76142C213.622 6.72731 213.569 6.70358 213.515 6.69018C213.476 6.68167 213.411 6.67737 213.321 6.67737H212.918V7.86673H212.57V7.86674ZM212.918 6.37046H213.666C213.825 6.37046 213.949 6.35373 214.039 6.32021C214.128 6.28672 214.196 6.23313 214.243 6.15945C214.29 6.08576 214.313 6.00568 214.313 5.91921C214.313 5.79254 214.268 5.6884 214.178 5.60679C214.087 5.52519 213.945 5.48438 213.75 5.48437H212.918V6.37046Z" fill="#FF0000"/>
<path d="M215.686 6.54182C215.686 7.73569 214.736 8.70351 213.565 8.70351C212.393 8.70351 211.443 7.73569 211.443 6.54182C211.443 5.34795 212.393 4.38013 213.565 4.38013C214.736 4.38013 215.686 5.34795 215.686 6.54182Z" stroke="#FF0000" stroke-width="0.880983"/>
</svg>
