<svg width="212" height="61" viewBox="0 0 212 61" fill="none" xmlns="http://www.w3.org/2000/svg">
<rect y="0.5" width="212" height="60" rx="10" fill="url(#paint0_linear)"/>
<path d="M73.2305 14.1031C73.2305 15.4529 72.8314 16.5277 72.0322 17.3296C71.1243 18.283 69.9411 18.7601 68.4865 18.7601C67.0936 18.7601 65.9092 18.2768 64.9353 17.3088C63.9596 16.3415 63.4727 15.142 63.4727 13.7109C63.4727 12.2791 63.9596 11.0804 64.9353 10.1123C65.9092 9.14511 67.0936 8.66107 68.4865 8.66107C69.1777 8.66107 69.8394 8.79647 70.4677 9.06648C71.096 9.33713 71.5999 9.69641 71.9769 10.1463L71.1286 10.9965C70.4897 10.2319 69.61 9.84991 68.4865 9.84991C67.4706 9.84991 66.5922 10.2075 65.8508 10.923C65.1093 11.6392 64.7387 12.568 64.7387 13.7109C64.7387 14.8538 65.1093 15.7826 65.8508 16.4989C66.5922 17.2144 67.4706 17.5719 68.4865 17.5719C69.5642 17.5719 70.4627 17.2125 71.1821 16.4926C71.649 16.0236 71.919 15.3718 71.9913 14.5347H68.4864V13.3736H73.1632C73.2083 13.6261 73.2304 13.8683 73.2304 14.1031" fill="white"/>
<path d="M73.2311 14.1031H73.0702C73.0689 15.4221 72.6843 16.4466 71.9189 17.2157L71.9173 17.217L71.9166 17.2183C71.0375 18.1389 69.9076 18.5971 68.487 18.599C67.1313 18.5971 65.9965 18.1339 65.0489 17.1949C64.1034 16.2541 63.6359 15.1055 63.6341 13.7109C63.6359 12.3157 64.1034 11.1678 65.0489 10.2276C65.9965 9.288 67.1313 8.82417 68.487 8.82221C69.1575 8.82221 69.7959 8.95327 70.4047 9.21436C71.0142 9.47749 71.4956 9.82229 71.8543 10.2504L71.9775 10.1464L71.8638 10.0325L71.0155 10.8833L71.1291 10.9966L71.253 10.8935C70.5844 10.091 69.6458 9.68645 68.4871 9.68884C67.4335 9.68754 66.5067 10.0646 65.7401 10.8073C64.966 11.5524 64.5771 12.5335 64.5785 13.7109C64.5771 14.8885 64.966 15.8695 65.7401 16.6147C66.5067 17.3573 67.4335 17.7344 68.487 17.733C69.6004 17.735 70.5493 17.3567 71.2963 16.6065C71.7952 16.1055 72.078 15.4115 72.1522 14.5485L72.1672 14.3736H68.6479V13.5347H73.1638V13.3736L73.0053 13.4019C73.0493 13.6462 73.0701 13.8783 73.0701 14.1031H73.3918C73.3918 13.8582 73.3692 13.6065 73.322 13.3448L73.2982 13.2125H68.3263V14.6958H71.9919V14.5347L71.8317 14.5209C71.7607 15.3315 71.503 15.942 71.0689 16.3788C70.3778 17.0685 69.5295 17.4089 68.4871 17.4108C67.5089 17.4095 66.6789 17.0722 65.9632 16.3831C65.2545 15.6965 64.902 14.8198 64.9002 13.7109C64.902 12.602 65.2545 11.7254 65.9632 11.0388C66.6789 10.3497 67.5088 10.0124 68.4871 10.0111C69.5748 10.0137 70.3961 10.3736 71.0062 11.1005L71.1193 11.2352L72.0913 10.2603L72.1955 10.1559L72.1006 10.0431C71.7054 9.57125 71.1789 9.1967 70.5317 8.91866C69.8833 8.63975 69.1991 8.5 68.4871 8.5C67.0571 8.49877 65.8231 9.00221 64.8222 9.99852C63.8175 10.9929 63.3111 12.2428 63.3125 13.7109C63.3111 15.1785 63.8175 16.4291 64.8228 17.424C65.8231 18.4197 67.0571 18.9225 68.4871 18.9212C69.9763 18.9225 71.2116 18.4271 72.1491 17.441L72.0327 17.3296L72.1464 17.4436C72.9796 16.6097 73.393 15.4832 73.3919 14.1031H73.231H73.2311ZM80.6451 10.0652H76.25V13.1302H80.2135V14.2917H76.25V17.3567H80.6451V18.5442H75.011V8.87767H80.6451V10.0652Z" fill="white"/>
<path d="M80.6445 10.0652V9.90409H76.0886V13.2913H80.0521V14.1302L76.0886 14.1306V17.5178H80.4836V18.3831H75.1713V9.03876H80.4836V10.0652H80.6445V9.90409V10.0652H80.8053V8.71655H74.8496V18.7053H80.8053V17.1956H76.4103V14.4528H80.3738V12.9691H76.4103V10.2263H80.8053V10.0652H80.6445ZM85.874 18.5443H84.6331V10.0651H81.9375V8.87758H88.5695V10.0651H85.874V18.5441" fill="white"/>
<path d="M85.8746 18.5443V18.3831H84.7945V9.90409H82.099V9.03883H88.4093V9.90409H85.7138V18.5442H85.8746V18.3831V18.5442H86.0355V10.2263H88.731V8.71655H81.7773V10.2262H84.4728V18.7052H86.0355V18.5441H85.8746V18.5443ZM93.3686 18.5443V8.87758H94.6083V18.5441H93.3686" fill="white"/>
<path d="M93.3678 18.5443H93.5287V9.03876H94.4466V18.3831H93.3678V18.5442H93.5287H93.3678V18.7053H94.7683V8.71655H93.207V18.7053H93.3678V18.5442V18.5443ZM100.108 18.5443H98.8675V10.0651H96.1721V8.87758H102.804V10.0651H100.108V18.5441" fill="white"/>
<path d="M100.109 18.5443V18.3831H99.0287V9.90407H96.3334V9.03882H102.643V9.90407H99.948V18.5442H100.109V18.3831V18.5442H100.27V10.2263H102.965V8.71653H96.0117V10.2262H98.707V18.7052H100.27V18.5441H100.109V18.5443ZM109.198 16.4857C109.912 17.21 110.787 17.5718 111.82 17.5718C112.854 17.5718 113.728 17.21 114.441 16.4857C115.156 15.7614 115.515 14.8355 115.515 13.7109C115.515 12.5864 115.156 11.6605 114.441 10.9362C113.728 10.2118 112.854 9.84991 111.82 9.84991C110.787 9.84991 109.912 10.2118 109.198 10.9362C108.485 11.6605 108.127 12.5864 108.127 13.7109C108.127 14.8355 108.485 15.7614 109.198 16.4857ZM115.359 17.295C114.41 18.2722 113.23 18.7601 111.82 18.7601C110.409 18.7601 109.229 18.2722 108.283 17.295C107.333 16.3188 106.861 15.1238 106.861 13.7109C106.861 12.298 107.333 11.1028 108.283 10.1269C109.23 9.14938 110.409 8.66107 111.82 8.66107C113.223 8.66107 114.399 9.15199 115.353 10.1332C116.304 11.1143 116.781 12.3068 116.781 13.7109C116.781 15.1238 116.306 16.3188 115.359 17.295Z" fill="white"/>
<path d="M109.199 16.4858L109.085 16.599C109.826 17.3523 110.75 17.735 111.821 17.7331C112.892 17.735 113.817 17.3523 114.557 16.599C115.303 15.845 115.678 14.8695 115.677 13.7109C115.678 12.5524 115.303 11.5769 114.557 10.8229C113.817 10.0696 112.892 9.68696 111.821 9.68884C110.75 9.68696 109.826 10.0696 109.085 10.8229C108.341 11.5769 107.965 12.5524 107.967 13.7109C107.965 14.8695 108.341 15.845 109.085 16.599L109.199 16.4858L109.314 16.3725C108.631 15.677 108.29 14.8022 108.289 13.7109C108.29 12.6198 108.631 11.745 109.314 11.0494C110.002 10.3541 110.825 10.013 111.821 10.0111C112.817 10.013 113.641 10.3541 114.328 11.0494C115.012 11.745 115.353 12.6198 115.354 13.7109C115.353 14.8021 115.012 15.677 114.328 16.3725C113.641 17.0679 112.817 17.4089 111.821 17.4108C110.825 17.4089 110.002 17.0679 109.314 16.3725L109.199 16.4858ZM115.36 17.295L115.245 17.1831C114.323 18.1295 113.195 18.5971 111.821 18.599C110.447 18.5971 109.319 18.1295 108.399 17.1831L108.394 17.178L108.399 17.1831C107.478 16.2333 107.024 15.088 107.023 13.7109C107.024 12.3339 107.478 11.1886 108.399 10.2389C109.319 9.29235 110.447 8.82417 111.821 8.82229C113.186 8.82417 114.311 9.2943 115.239 10.2458C116.162 11.1999 116.619 12.3434 116.621 13.7109C116.619 15.088 116.164 16.2333 115.245 17.1831L115.36 17.295L115.476 17.4069C116.451 16.4039 116.944 15.1597 116.943 13.7109C116.944 12.2705 116.449 11.0288 115.469 10.0213C114.489 9.00975 113.261 8.49827 111.821 8.5C110.374 8.49827 109.142 9.00736 108.168 10.015V10.0142C107.191 11.018 106.7 12.2622 106.701 13.7109C106.7 15.1597 107.191 16.4039 108.168 17.4076L108.173 17.4121L108.168 17.4069C109.142 18.4145 110.374 18.9225 111.821 18.9212C113.268 18.9225 114.5 18.4145 115.476 17.4069L115.36 17.295ZM118.522 18.5443V8.8776H120.032L124.722 16.3975H124.775L124.722 14.5346V8.8776H125.963V18.5441H124.668L119.761 10.6598H119.708L119.761 12.5233V18.5441H118.522" fill="white"/>
<path d="M118.522 18.5443H118.683V9.03876H119.942L124.632 16.5587H124.94L124.882 14.5323V9.03883H125.801V18.3831H124.757L119.85 10.4988H119.542L119.6 12.526V18.3831H118.522V18.5442H118.683H118.522V18.7053H119.922V12.5209L119.868 10.6555L119.707 10.6599V10.821H119.761V10.6599L119.624 10.7455L124.579 18.7053H126.123V8.71655H124.56V14.5366L124.614 16.4019L124.775 16.3976V16.2365H124.721V16.3976L124.858 16.3121L120.12 8.71655H118.361V18.7053H118.522V18.5442L118.522 18.5443ZM168.965 45.9328H171.966V25.7922H168.965L168.965 45.9328ZM195.999 33.0473L192.558 41.7793H192.455L188.884 33.0473H185.651L191.006 45.2518L187.953 52.0405H191.085L199.337 33.0473L195.999 33.0473ZM178.978 43.6453C177.993 43.6453 176.623 43.153 176.623 41.9347C176.623 40.3802 178.331 39.7843 179.805 39.7843C181.125 39.7843 181.744 40.0693 182.547 40.4584C182.314 42.3236 180.71 43.6453 178.978 43.6453ZM179.34 32.6067C177.167 32.6067 174.916 33.5657 173.985 35.6905L176.649 36.8044C177.218 35.6905 178.278 35.3273 179.391 35.3273C180.943 35.3273 182.521 36.2606 182.547 37.9189V38.126C182.003 37.815 180.84 37.3487 179.417 37.3487C176.546 37.3487 173.622 38.9289 173.622 41.883C173.622 44.5779 175.976 46.3142 178.614 46.3142C180.633 46.3142 181.744 45.4073 182.444 44.3451H182.547V45.8995H185.444V38.1775C185.444 34.6024 182.78 32.6067 179.34 32.6067ZM160.791 35.499H156.522V28.5954H160.791C163.034 28.5954 164.308 30.4562 164.308 32.0471C164.308 33.6079 163.034 35.499 160.791 35.499ZM160.713 25.7922H153.522V45.9328H156.522V38.3022H160.713C164.04 38.3022 167.31 35.8899 167.31 32.0471C167.31 28.2045 164.04 25.7922 160.713 25.7922ZM121.497 43.6489C119.423 43.6489 117.687 41.9101 117.687 39.5218C117.687 37.1084 119.423 35.3431 121.497 35.3431C123.544 35.3431 125.15 37.1083 125.15 39.5218C125.15 41.9101 123.544 43.6489 121.497 43.6489H121.497ZM124.943 34.1751H124.839C124.166 33.3706 122.87 32.6439 121.237 32.6439C117.817 32.6439 114.681 35.6546 114.681 39.5218C114.681 43.3633 117.817 46.3482 121.237 46.3482C122.87 46.3482 124.166 45.6212 124.839 44.7912H124.943V45.7773C124.943 48.3992 123.544 49.8007 121.289 49.8007C119.45 49.8007 118.309 48.4766 117.842 47.3607L115.226 48.4508C115.977 50.2676 117.972 52.5 121.289 52.5C124.814 52.5 127.794 50.4231 127.794 45.362V33.0592H124.943V34.1751ZM129.867 45.9328H132.872V25.7915H129.867V45.9328ZM137.304 39.2883C137.226 36.6407 139.351 35.2914 140.88 35.2914C142.073 35.2914 143.083 35.888 143.419 36.7453L137.304 39.2883ZM146.633 37.0044C146.063 35.4726 144.326 32.6439 140.776 32.6439C137.252 32.6439 134.324 35.421 134.324 39.496C134.324 43.3375 137.226 46.3482 141.113 46.3482C144.249 46.3482 146.063 44.4274 146.814 43.3115L144.482 41.7539C143.705 42.8962 142.642 43.6489 141.113 43.6489C139.584 43.6489 138.496 42.9479 137.796 41.5727L146.943 37.7829L146.633 37.0044ZM73.7548 34.7464V37.6533H80.6994C80.4921 39.2883 79.9479 40.4822 79.1186 41.3128C78.1083 42.3254 76.5275 43.4413 73.7547 43.4413C69.4789 43.4413 66.1363 39.9893 66.1363 35.7067C66.1363 31.4241 69.4789 27.9717 73.7548 27.9717C76.0612 27.9717 77.7451 28.8804 78.9891 30.0483L81.0362 27.9981C79.3002 26.3366 76.9936 25.0648 73.7548 25.0648C67.8981 25.0648 62.9746 29.8408 62.9746 35.7067C62.9746 41.5727 67.8981 46.3482 73.7548 46.3482C76.9164 46.3482 79.3002 45.3105 81.1657 43.3633C83.0834 41.4425 83.6796 38.7433 83.6796 36.5633C83.6796 35.888 83.628 35.2656 83.5238 34.7464H73.7548ZM91.5751 43.6489C89.5016 43.6489 87.7134 41.9358 87.7134 39.496C87.7134 37.0302 89.5016 35.3431 91.5751 35.3431C93.6478 35.3431 95.4359 37.0302 95.4359 39.496C95.4359 41.9359 93.6478 43.6489 91.5751 43.6489ZM91.5751 32.6439C87.7913 32.6439 84.7075 35.5248 84.7075 39.496C84.7075 43.4413 87.7913 46.3482 91.5751 46.3482C95.3581 46.3482 98.4419 43.4413 98.4419 39.496C98.4419 35.5248 95.3581 32.6439 91.5751 32.6439ZM106.555 43.6489C104.483 43.6489 102.694 41.9358 102.694 39.496C102.694 37.0302 104.483 35.3431 106.555 35.3431C108.628 35.3431 110.416 37.0302 110.416 39.496C110.416 41.9359 108.628 43.6489 106.555 43.6489H106.555ZM106.555 32.6439C102.772 32.6439 99.6885 35.5248 99.6885 39.496C99.6885 43.4413 102.772 46.3482 106.555 46.3482C110.338 46.3482 113.422 43.4413 113.422 39.496C113.422 35.5248 110.338 32.6439 106.555 32.6439H106.555Z" fill="white"/>
<path d="M13.862 9.86253C13.3222 10.3503 13 11.164 13 12.244V11.9998V47.639V47.4042C13 48.4016 13.2764 49.1719 13.7444 49.6679L13.8639 49.7825V49.783C14.2427 50.1254 14.7285 50.3072 15.2852 50.3066C15.8292 50.3066 16.4413 50.1329 17.0872 49.7661L40.4348 36.479L48.4545 31.9144C49.4731 31.3349 50.0449 30.5872 50.1404 29.8256V29.8225C50.0449 29.0592 49.4731 28.3121 48.4546 27.7325L40.4341 23.1685L17.0873 9.88136C16.44 9.51389 15.8275 9.33954 15.282 9.33954C14.726 9.33954 14.2408 9.52077 13.8621 9.86253H13.862Z" fill="#00C1FF"/>
<path d="M13.864 49.7825L13.7444 49.668C13.2764 49.172 13 48.4017 13 47.4043V47.639V12.0087V12.244C13 11.164 13.3222 10.3504 13.862 9.86257L33.7909 29.8232L13.864 49.7825Z" fill="url(#paint1_linear)"/>
<path d="M40.4349 36.4789L33.791 29.8232L40.4343 23.1685L48.4547 27.7325C49.4732 28.3122 50.045 29.0592 50.1405 29.8226V29.8256C50.045 30.5872 49.4732 31.3349 48.4547 31.9144L40.435 36.4789" fill="url(#paint2_linear)"/>
<path d="M15.2845 50.3066C14.7278 50.3071 14.242 50.1253 13.8633 49.7829V49.7824L33.7902 29.8231L40.4341 36.4788L17.0865 49.7661C16.4405 50.1329 15.8285 50.3066 15.2845 50.3066Z" fill="url(#paint3_linear)"/>
<path d="M33.7903 29.8232L13.8613 9.86261C14.2402 9.52085 14.7253 9.33961 15.2813 9.33961C15.8267 9.33961 16.4393 9.5139 17.0865 9.88143L40.4335 23.1686L33.7902 29.8232" fill="url(#paint4_linear)"/>
<path d="M15.2855 50.5427C14.7288 50.5427 14.2424 50.3608 13.8635 50.0184L13.8629 50.019C13.8613 50.0175 13.8597 50.016 13.8579 50.0147L13.7543 49.9133C13.751 49.9101 13.748 49.9064 13.7441 49.9027L13.8636 49.783C14.2424 50.1254 14.7281 50.3073 15.2849 50.3066C15.8289 50.3066 16.4409 50.133 17.0869 49.7661L40.4344 36.479L40.584 36.6288L40.4326 36.715L17.0868 50.0014C16.4981 50.3357 15.9382 50.5099 15.4324 50.539C15.3835 50.5414 15.3345 50.5426 15.2855 50.5426" fill="url(#paint5_linear)"/>
<path d="M13.7444 49.9027C13.2764 49.4067 13 48.637 13 47.639V47.4043C13 48.4017 13.2764 49.1719 13.7444 49.668L13.8639 49.7825L13.7444 49.9027Z" fill="url(#paint6_linear)"/>
<path d="M40.5851 36.6287L40.4355 36.4788L48.4553 31.9143C49.4738 31.3349 50.0456 30.5871 50.1412 29.8256C50.1412 30.105 50.0789 30.3845 49.9552 30.6564C49.7057 31.2045 49.2057 31.7225 48.4554 32.1497L40.5851 36.6288" fill="url(#paint7_linear)"/>
<path d="M50.1399 29.8226C50.0443 29.0592 49.4725 28.3122 48.4541 27.7325L40.4336 23.1686L40.5832 23.0187H40.5838L48.4541 27.4977C49.5769 28.1372 50.1392 28.9798 50.1399 29.8226Z" fill="url(#paint8_linear)"/>
<path d="M13 12.244V11.9978C13 11.9091 13.0024 11.8223 13.007 11.738V11.7341C13.007 11.733 13.007 11.7317 13.0074 11.7304V11.721C13.0558 10.8619 13.3222 10.1917 13.7444 9.74426L13.862 9.8625C13.3222 10.3504 13 11.164 13 12.244Z" fill="url(#paint9_linear)"/>
<path d="M40.4338 23.1686L17.0869 9.88128C16.4396 9.51382 15.8271 9.33954 15.2817 9.33954C14.7256 9.33954 14.2405 9.52077 13.8617 9.86253L13.7441 9.74422C13.7809 9.70528 13.819 9.66772 13.8585 9.63162C13.8598 9.63032 13.8617 9.62902 13.863 9.62779C14.2387 9.28864 14.7187 9.1074 15.2698 9.10414H15.2817C15.8271 9.10414 16.4396 9.2785 17.0869 9.64611L40.584 23.0182L40.5834 23.0187L40.4338 23.1686Z" fill="url(#paint10_linear)"/>
<defs>
<linearGradient id="paint0_linear" x1="106" y1="0.5" x2="106" y2="60.5" gradientUnits="userSpaceOnUse">
<stop stop-color="#313437"/>
<stop offset="1"/>
</linearGradient>
<linearGradient id="paint1_linear" x1="25.7358" y1="11.6321" x2="8.56152" y2="28.834" gradientUnits="userSpaceOnUse">
<stop stop-color="#00A0FF"/>
<stop offset="0.00657" stop-color="#00A1FF"/>
<stop offset="0.2601" stop-color="#00BEFF"/>
<stop offset="0.5122" stop-color="#00D2FF"/>
<stop offset="0.7604" stop-color="#00DFFF"/>
<stop offset="1" stop-color="#00E3FF"/>
</linearGradient>
<linearGradient id="paint2_linear" x1="51.3815" y1="29.7082" x2="12.4608" y2="29.7082" gradientUnits="userSpaceOnUse">
<stop stop-color="#FFE000"/>
<stop offset="0.4087" stop-color="#FFBD00"/>
<stop offset="0.7754" stop-color="#FFA500"/>
<stop offset="1" stop-color="#FF9C00"/>
</linearGradient>
<linearGradient id="paint3_linear" x1="36.9068" y1="36.1511" x2="7.80373" y2="65.0882" gradientUnits="userSpaceOnUse">
<stop stop-color="#FF3A44"/>
<stop offset="1" stop-color="#C31162"/>
</linearGradient>
<linearGradient id="paint4_linear" x1="8.72507" y1="6.90335" x2="21.6957" y2="19.8198" gradientUnits="userSpaceOnUse">
<stop stop-color="#32A071"/>
<stop offset="0.0685" stop-color="#2DA771"/>
<stop offset="0.4762" stop-color="#15CF74"/>
<stop offset="0.8009" stop-color="#06E775"/>
<stop offset="1" stop-color="#00F076"/>
</linearGradient>
<linearGradient id="paint5_linear" x1="36.8927" y1="40.768" x2="13.5855" y2="64.1129" gradientUnits="userSpaceOnUse">
<stop stop-color="#CC2E36"/>
<stop offset="1" stop-color="#9C0E4E"/>
</linearGradient>
<linearGradient id="paint6_linear" x1="15.6548" y1="11.632" x2="0.524549" y2="26.7869" gradientUnits="userSpaceOnUse">
<stop stop-color="#008DE0"/>
<stop offset="0.00657" stop-color="#008DE0"/>
<stop offset="0.2601" stop-color="#00A7E0"/>
<stop offset="0.5122" stop-color="#00B8E0"/>
<stop offset="0.7604" stop-color="#00C4E0"/>
<stop offset="1" stop-color="#00C7E0"/>
</linearGradient>
<linearGradient id="paint7_linear" x1="51.3822" y1="29.8241" x2="12.4614" y2="29.8241" gradientUnits="userSpaceOnUse">
<stop stop-color="#E0C500"/>
<stop offset="0.4087" stop-color="#E0A600"/>
<stop offset="0.7754" stop-color="#E09100"/>
<stop offset="1" stop-color="#E08900"/>
</linearGradient>
<linearGradient id="paint8_linear" x1="51.3809" y1="29.8242" x2="12.4602" y2="29.8242" gradientUnits="userSpaceOnUse">
<stop stop-color="#FFE840"/>
<stop offset="0.4087" stop-color="#FFCE40"/>
<stop offset="0.7754" stop-color="#FFBC40"/>
<stop offset="1" stop-color="#FFB540"/>
</linearGradient>
<linearGradient id="paint9_linear" x1="15.6384" y1="11.6595" x2="1.06528" y2="25.6238" gradientUnits="userSpaceOnUse">
<stop stop-color="#40B8FF"/>
<stop offset="0.00657" stop-color="#40B9FF"/>
<stop offset="0.2601" stop-color="#40CEFF"/>
<stop offset="0.5122" stop-color="#40DDFF"/>
<stop offset="0.7604" stop-color="#40E7FF"/>
<stop offset="1" stop-color="#40EAFF"/>
</linearGradient>
<linearGradient id="paint10_linear" x1="8.69636" y1="11.1246" x2="19.1041" y2="21.5492" gradientUnits="userSpaceOnUse">
<stop stop-color="#65B895"/>
<stop offset="0.0685" stop-color="#62BD95"/>
<stop offset="0.4762" stop-color="#50DB97"/>
<stop offset="0.8009" stop-color="#44ED98"/>
<stop offset="1" stop-color="#40F498"/>
</linearGradient>
</defs>
</svg>
