<svg width="212" height="60" viewBox="0 0 212 60" fill="none" xmlns="http://www.w3.org/2000/svg">
<rect width="212" height="60" rx="10" fill="url(#paint0_linear)"/>
<path d="M73.2305 13.6031C73.2305 14.9529 72.8314 16.0278 72.0322 16.8296C71.1243 17.7831 69.9411 18.2602 68.4865 18.2602C67.0936 18.2602 65.9092 17.7768 64.9353 16.8088C63.9596 15.8416 63.4727 14.6421 63.4727 13.211C63.4727 11.7792 63.9596 10.5804 64.9353 9.61237C65.9092 8.64517 67.0936 8.16113 68.4865 8.16113C69.1777 8.16113 69.8394 8.29653 70.4677 8.56654C71.096 8.83719 71.5999 9.19647 71.9769 9.6464L71.1286 10.4966C70.4897 9.73199 69.61 9.34997 68.4865 9.34997C67.4706 9.34997 66.5922 9.70752 65.8508 10.423C65.1093 11.1393 64.7387 12.0681 64.7387 13.211C64.7387 14.3539 65.1093 15.2827 65.8508 15.999C66.5922 16.7145 67.4706 17.072 68.4865 17.072C69.5642 17.072 70.4627 16.7125 71.1821 15.9927C71.649 15.5237 71.919 14.8718 71.9913 14.0347H68.4864V12.8736H73.1632C73.2083 13.1261 73.2304 13.3684 73.2304 13.6031" fill="white"/>
<path d="M73.2311 13.6031H73.0702C73.0689 14.9221 72.6843 15.9466 71.9189 16.7157L71.9173 16.717L71.9166 16.7183C71.0375 17.6389 69.9076 18.0971 68.487 18.099C67.1313 18.0971 65.9965 17.6339 65.0489 16.6949C64.1034 15.7541 63.6359 14.6055 63.6341 13.2109C63.6359 11.8157 64.1034 10.6678 65.0489 9.72762C65.9965 8.788 67.1313 8.32417 68.487 8.32221C69.1575 8.32221 69.7959 8.45327 70.4047 8.71436C71.0142 8.97749 71.4956 9.32229 71.8543 9.75035L71.9775 9.64638L71.8638 9.53248L71.0155 10.3833L71.1291 10.4966L71.253 10.3935C70.5844 9.59099 69.6458 9.18645 68.4871 9.18884C67.4335 9.18754 66.5067 9.56463 65.7401 10.3073C64.966 11.0524 64.5771 12.0335 64.5785 13.2109C64.5771 14.3885 64.966 15.3695 65.7401 16.1147C66.5067 16.8573 67.4335 17.2344 68.487 17.233C69.6004 17.235 70.5493 16.8567 71.2963 16.1065C71.7952 15.6055 72.078 14.9115 72.1522 14.0485L72.1672 13.8736H68.6479V13.0347H73.1638V12.8736L73.0053 12.9019C73.0493 13.1462 73.0701 13.3783 73.0701 13.6031H73.3918C73.3918 13.3582 73.3692 13.1065 73.322 12.8448L73.2982 12.7125H68.3263V14.1958H71.9919V14.0347L71.8317 14.0209C71.7607 14.8315 71.503 15.442 71.0689 15.8788C70.3778 16.5685 69.5295 16.9089 68.4871 16.9108C67.5089 16.9095 66.6789 16.5722 65.9632 15.8831C65.2545 15.1965 64.902 14.3198 64.9002 13.2109C64.902 12.102 65.2545 11.2254 65.9632 10.5388C66.6789 9.8497 67.5088 9.51235 68.4871 9.51105C69.5748 9.51366 70.3961 9.87359 71.0062 10.6005L71.1193 10.7352L72.0913 9.76035L72.1955 9.65594L72.1006 9.54313C71.7054 9.07125 71.1789 8.6967 70.5317 8.41866C69.8833 8.13975 69.1991 8 68.4871 8C67.0571 7.99877 65.8231 8.50221 64.8222 9.49852C63.8175 10.4929 63.3111 11.7428 63.3125 13.2109C63.3111 14.6785 63.8175 15.9291 64.8228 16.924C65.8231 17.9197 67.0571 18.4225 68.4871 18.4212C69.9763 18.4225 71.2116 17.9271 72.1491 16.941L72.0327 16.8296L72.1464 16.9436C72.9796 16.1097 73.393 14.9832 73.3919 13.6031H73.231H73.2311ZM80.6451 9.56521H76.25V12.6302H80.2135V13.7917H76.25V16.8567H80.6451V18.0442H75.011V8.37767H80.6451V9.56521Z" fill="white"/>
<path d="M80.6445 9.56519V9.40409H76.0886V12.7913H80.0521V13.6302L76.0886 13.6306V17.0178H80.4836V17.8831H75.1713V8.53876H80.4836V9.56519H80.6445V9.40409V9.56519H80.8053V8.21655H74.8496V18.2053H80.8053V16.6956H76.4103V13.9528H80.3738V12.4691H76.4103V9.7263H80.8053V9.56519H80.6445ZM85.874 18.0443H84.6331V9.56512H81.9375V8.37758H88.5695V9.56512H85.874V18.0441" fill="white"/>
<path d="M85.8746 18.0443V17.8831H84.7945V9.40409H82.099V8.53883H88.4093V9.40409H85.7138V18.0442H85.8746V17.8831V18.0442H86.0355V9.7263H88.731V8.21655H81.7773V9.72623H84.4728V18.2052H86.0355V18.0441H85.8746V18.0443ZM93.3686 18.0443V8.37758H94.6083V18.0441H93.3686" fill="white"/>
<path d="M93.3678 18.0443H93.5287V8.53876H94.4466V17.8831H93.3678V18.0442H93.5287H93.3678V18.2053H94.7683V8.21655H93.207V18.2053H93.3678V18.0442V18.0443ZM100.108 18.0443H98.8675V9.56512H96.1721V8.37758H102.804V9.56512H100.108V18.0441" fill="white"/>
<path d="M100.109 18.0443V17.8831H99.0287V9.40413H96.3334V8.53888H102.643V9.40413H99.948V18.0442H100.109V17.8831V18.0442H100.27V9.72634H102.965V8.2166H96.0117V9.72627H98.707V18.2053H100.27V18.0442H100.109V18.0443ZM109.198 15.9858C109.912 16.7101 110.787 17.0719 111.82 17.0719C112.854 17.0719 113.728 16.7101 114.441 15.9858C115.156 15.2614 115.515 14.3355 115.515 13.211C115.515 12.0865 115.156 11.1606 114.441 10.4362C113.728 9.71186 112.854 9.34997 111.82 9.34997C110.787 9.34997 109.912 9.71186 109.198 10.4362C108.485 11.1606 108.127 12.0864 108.127 13.211C108.127 14.3355 108.485 15.2614 109.198 15.9858ZM115.359 16.795C114.41 17.7723 113.23 18.2602 111.82 18.2602C110.409 18.2602 109.229 17.7723 108.283 16.795C107.333 15.8188 106.861 14.6239 106.861 13.211C106.861 11.798 107.333 10.6029 108.283 9.62693C109.23 8.64944 110.409 8.16113 111.82 8.16113C113.223 8.16113 114.399 8.65205 115.353 9.63323C116.304 10.6143 116.781 11.8069 116.781 13.211C116.781 14.6239 116.306 15.8188 115.359 16.795Z" fill="white"/>
<path d="M109.199 15.9858L109.085 16.099C109.826 16.8523 110.75 17.235 111.821 17.2331C112.892 17.235 113.817 16.8523 114.557 16.099C115.303 15.345 115.678 14.3695 115.677 13.2109C115.678 12.0524 115.303 11.0769 114.557 10.3229C113.817 9.56956 112.892 9.18696 111.821 9.18884C110.75 9.18696 109.826 9.56956 109.085 10.3229C108.341 11.0769 107.965 12.0524 107.967 13.2109C107.965 14.3695 108.341 15.345 109.085 16.099L109.199 15.9858L109.314 15.8725C108.631 15.177 108.29 14.3022 108.289 13.2109C108.29 12.1198 108.631 11.245 109.314 10.5494C110.002 9.85411 110.825 9.51301 111.821 9.51113C112.817 9.51301 113.641 9.85411 114.328 10.5494C115.012 11.245 115.353 12.1198 115.354 13.2109C115.353 14.3021 115.012 15.177 114.328 15.8725C113.641 16.5679 112.817 16.9089 111.821 16.9108C110.825 16.9089 110.002 16.5679 109.314 15.8725L109.199 15.9858ZM115.36 16.795L115.245 16.6831C114.323 17.6295 113.195 18.0971 111.821 18.099C110.447 18.0971 109.319 17.6295 108.399 16.6831L108.394 16.678L108.399 16.6831C107.478 15.7333 107.024 14.588 107.023 13.2109C107.024 11.8339 107.478 10.6886 108.399 9.73892C109.319 8.79235 110.447 8.32417 111.821 8.32229C113.186 8.32417 114.311 8.7943 115.239 9.74579C116.162 10.6999 116.619 11.8434 116.621 13.2109C116.619 14.588 116.164 15.7333 115.245 16.6831L115.36 16.795L115.476 16.9069C116.451 15.9039 116.944 14.6597 116.943 13.2109C116.944 11.7705 116.449 10.5288 115.469 9.52126C114.489 8.50975 113.261 7.99827 111.821 8C110.374 7.99827 109.142 8.50736 108.168 9.51496V9.51424C107.191 10.518 106.7 11.7622 106.701 13.2109C106.7 14.6597 107.191 15.9039 108.168 16.9076L108.173 16.9121L108.168 16.9069C109.142 17.9145 110.374 18.4225 111.821 18.4212C113.268 18.4225 114.5 17.9145 115.476 16.9069L115.36 16.795ZM118.522 18.0443V8.3776H120.032L124.722 15.8975H124.775L124.722 14.0346V8.3776H125.963V18.0441H124.668L119.761 10.1598H119.708L119.761 12.0233V18.0441H118.522" fill="white"/>
<path d="M118.522 18.0443H118.683V8.53876H119.942L124.632 16.0587H124.94L124.882 14.0323V8.53883H125.801V17.8831H124.757L119.85 9.99876H119.542L119.6 12.026V17.8831H118.522V18.0442H118.683H118.522V18.2053H119.922V12.0209L119.868 10.1555L119.707 10.1599V10.321H119.761V10.1599L119.624 10.2455L124.579 18.2053H126.123V8.21655H124.56V14.0366L124.614 15.9019L124.775 15.8976V15.7365H124.721V15.8976L124.858 15.8121L120.12 8.21655H118.361V18.2053H118.522V18.0442L118.522 18.0443ZM168.965 45.4328H171.966V25.2922H168.965L168.965 45.4328ZM195.999 32.5473L192.558 41.2793H192.455L188.884 32.5473H185.651L191.006 44.7518L187.953 51.5405H191.085L199.337 32.5473L195.999 32.5473ZM178.978 43.1453C177.993 43.1453 176.623 42.653 176.623 41.4347C176.623 39.8802 178.331 39.2843 179.805 39.2843C181.125 39.2843 181.744 39.5693 182.547 39.9584C182.314 41.8236 180.71 43.1453 178.978 43.1453ZM179.34 32.1067C177.167 32.1067 174.916 33.0657 173.985 35.1905L176.649 36.3044C177.218 35.1905 178.278 34.8273 179.391 34.8273C180.943 34.8273 182.521 35.7606 182.547 37.4189V37.626C182.003 37.315 180.84 36.8487 179.417 36.8487C176.546 36.8487 173.622 38.4289 173.622 41.383C173.622 44.0779 175.976 45.8142 178.614 45.8142C180.633 45.8142 181.744 44.9073 182.444 43.8451H182.547V45.3995H185.444V37.6775C185.444 34.1024 182.78 32.1067 179.34 32.1067ZM160.791 34.999H156.522V28.0954H160.791C163.034 28.0954 164.308 29.9562 164.308 31.5471C164.308 33.1079 163.034 34.999 160.791 34.999ZM160.713 25.2922H153.522V45.4328H156.522V37.8022H160.713C164.04 37.8022 167.31 35.3899 167.31 31.5471C167.31 27.7045 164.04 25.2922 160.713 25.2922ZM121.497 43.1489C119.423 43.1489 117.687 41.4101 117.687 39.0218C117.687 36.6084 119.423 34.8431 121.497 34.8431C123.544 34.8431 125.15 36.6083 125.15 39.0218C125.15 41.4101 123.544 43.1489 121.497 43.1489H121.497ZM124.943 33.6751H124.839C124.166 32.8706 122.87 32.1439 121.237 32.1439C117.817 32.1439 114.681 35.1546 114.681 39.0218C114.681 42.8633 117.817 45.8482 121.237 45.8482C122.87 45.8482 124.166 45.1212 124.839 44.2912H124.943V45.2773C124.943 47.8992 123.544 49.3007 121.289 49.3007C119.45 49.3007 118.309 47.9766 117.842 46.8607L115.226 47.9508C115.977 49.7676 117.972 52 121.289 52C124.814 52 127.794 49.9231 127.794 44.862V32.5592H124.943V33.6751ZM129.867 45.4328H132.872V25.2915H129.867V45.4328ZM137.304 38.7883C137.226 36.1407 139.351 34.7914 140.88 34.7914C142.073 34.7914 143.083 35.388 143.419 36.2453L137.304 38.7883ZM146.633 36.5044C146.063 34.9726 144.326 32.1439 140.776 32.1439C137.252 32.1439 134.324 34.921 134.324 38.996C134.324 42.8375 137.226 45.8482 141.113 45.8482C144.249 45.8482 146.063 43.9274 146.814 42.8115L144.482 41.2539C143.705 42.3962 142.642 43.1489 141.113 43.1489C139.584 43.1489 138.496 42.4479 137.796 41.0727L146.943 37.2829L146.633 36.5044ZM73.7548 34.2464V37.1533H80.6994C80.4921 38.7883 79.9479 39.9822 79.1186 40.8128C78.1083 41.8254 76.5275 42.9413 73.7547 42.9413C69.4789 42.9413 66.1363 39.4893 66.1363 35.2067C66.1363 30.9241 69.4789 27.4717 73.7548 27.4717C76.0612 27.4717 77.7451 28.3804 78.9891 29.5483L81.0362 27.4981C79.3002 25.8366 76.9936 24.5648 73.7548 24.5648C67.8981 24.5648 62.9746 29.3408 62.9746 35.2067C62.9746 41.0727 67.8981 45.8482 73.7548 45.8482C76.9164 45.8482 79.3002 44.8105 81.1657 42.8633C83.0834 40.9425 83.6796 38.2433 83.6796 36.0633C83.6796 35.388 83.628 34.7656 83.5238 34.2464H73.7548ZM91.5751 43.1489C89.5016 43.1489 87.7134 41.4358 87.7134 38.996C87.7134 36.5302 89.5016 34.8431 91.5751 34.8431C93.6478 34.8431 95.4359 36.5302 95.4359 38.996C95.4359 41.4359 93.6478 43.1489 91.5751 43.1489ZM91.5751 32.1439C87.7913 32.1439 84.7075 35.0248 84.7075 38.996C84.7075 42.9413 87.7913 45.8482 91.5751 45.8482C95.3581 45.8482 98.4419 42.9413 98.4419 38.996C98.4419 35.0248 95.3581 32.1439 91.5751 32.1439ZM106.555 43.1489C104.483 43.1489 102.694 41.4358 102.694 38.996C102.694 36.5302 104.483 34.8431 106.555 34.8431C108.628 34.8431 110.416 36.5302 110.416 38.996C110.416 41.4359 108.628 43.1489 106.555 43.1489H106.555ZM106.555 32.1439C102.772 32.1439 99.6885 35.0248 99.6885 38.996C99.6885 42.9413 102.772 45.8482 106.555 45.8482C110.338 45.8482 113.422 42.9413 113.422 38.996C113.422 35.0248 110.338 32.1439 106.555 32.1439H106.555Z" fill="white"/>
<path d="M13.862 9.36259C13.3222 9.85039 13 10.664 13 11.744V11.4999V47.139V46.9043C13 47.9017 13.2764 48.672 13.7444 49.168L13.8639 49.2826V49.2831C14.2427 49.6255 14.7285 49.8073 15.2852 49.8067C15.8292 49.8067 16.4413 49.633 17.0872 49.2662L40.4348 35.979L48.4545 31.4145C49.4731 30.8349 50.0449 30.0873 50.1404 29.3257V29.3226C50.0449 28.5593 49.4731 27.8122 48.4546 27.2326L40.4341 22.6686L17.0873 9.38142C16.44 9.01395 15.8275 8.8396 15.282 8.8396C14.726 8.8396 14.2408 9.02083 13.8621 9.36259H13.862Z" fill="#00C1FF"/>
<path d="M13.864 49.2825L13.7444 49.1679C13.2764 48.6719 13 47.9016 13 46.9042V47.139V11.5086V11.7439C13 10.6639 13.3222 9.85031 13.862 9.36251L33.7909 29.3231L13.864 49.2825Z" fill="url(#paint1_linear)"/>
<path d="M40.4349 35.979L33.791 29.3233L40.4343 22.6686L48.4547 27.2325C49.4732 27.8122 50.045 28.5592 50.1405 29.3226V29.3257C50.045 30.0872 49.4732 30.835 48.4547 31.4144L40.435 35.9789" fill="url(#paint2_linear)"/>
<path d="M15.2845 49.8066C14.7278 49.8071 14.242 49.6253 13.8633 49.2829V49.2824L33.7902 29.3231L40.4341 35.9788L17.0865 49.2661C16.4405 49.6329 15.8285 49.8066 15.2845 49.8066Z" fill="url(#paint3_linear)"/>
<path d="M33.7903 29.3232L13.8613 9.36261C14.2402 9.02085 14.7253 8.83961 15.2813 8.83961C15.8267 8.83961 16.4393 9.0139 17.0865 9.38143L40.4335 22.6686L33.7902 29.3232" fill="url(#paint4_linear)"/>
<path d="M15.2855 50.0427C14.7288 50.0427 14.2424 49.8608 13.8635 49.5185L13.8629 49.5191C13.8613 49.5175 13.8597 49.5161 13.8579 49.5147L13.7543 49.4134C13.751 49.4102 13.748 49.4065 13.7441 49.4028L13.8636 49.2831C14.2424 49.6254 14.7281 49.8073 15.2849 49.8067C15.8289 49.8067 16.4409 49.633 17.0869 49.2662L40.4344 35.979L40.584 36.1289L40.4326 36.2151L17.0868 49.5015C16.4981 49.8357 15.9382 50.01 15.4324 50.039C15.3835 50.0414 15.3345 50.0426 15.2855 50.0427" fill="url(#paint5_linear)"/>
<path d="M13.7444 49.4026C13.2764 48.9066 13 48.1369 13 47.1389V46.9041C13 47.9015 13.2764 48.6718 13.7444 49.1678L13.8639 49.2824L13.7444 49.4026Z" fill="url(#paint6_linear)"/>
<path d="M40.5851 36.1288L40.4355 35.979L48.4553 31.4145C49.4738 30.835 50.0456 30.0872 50.1412 29.3257C50.1412 29.6052 50.0789 29.8846 49.9552 30.1565C49.7057 30.7047 49.2057 31.2226 48.4554 31.6498L40.5851 36.1289" fill="url(#paint7_linear)"/>
<path d="M50.1399 29.3225C50.0443 28.5591 49.4725 27.8121 48.4541 27.2324L40.4336 22.6685L40.5832 22.5186H40.5838L48.4541 26.9977C49.5769 27.6371 50.1392 28.4797 50.1399 29.3225Z" fill="url(#paint8_linear)"/>
<path d="M13 11.7439V11.4977C13 11.4089 13.0024 11.3221 13.007 11.2378V11.234C13.007 11.2329 13.007 11.2316 13.0074 11.2303V11.2208C13.0558 10.3617 13.3222 9.69161 13.7444 9.24414L13.862 9.36238C13.3222 9.85025 13 10.6639 13 11.7439Z" fill="url(#paint9_linear)"/>
<path d="M40.4338 22.6687L17.0869 9.3814C16.4396 9.01394 15.8271 8.83966 15.2817 8.83966C14.7256 8.83966 14.2405 9.02089 13.8617 9.36265L13.7441 9.24434C13.7809 9.2054 13.819 9.16784 13.8585 9.13175C13.8598 9.13044 13.8617 9.12914 13.863 9.12791C14.2387 8.78876 14.7187 8.60752 15.2698 8.60427H15.2817C15.8271 8.60427 16.4396 8.77862 17.0869 9.14623L40.584 22.5183L40.5834 22.5188L40.4338 22.6687Z" fill="url(#paint10_linear)"/>
<defs>
<linearGradient id="paint0_linear" x1="106" y1="0" x2="106" y2="105" gradientUnits="userSpaceOnUse">
<stop stop-color="#313437"/>
<stop offset="1"/>
</linearGradient>
<linearGradient id="paint1_linear" x1="25.7358" y1="11.1321" x2="8.56152" y2="28.3339" gradientUnits="userSpaceOnUse">
<stop stop-color="#00A0FF"/>
<stop offset="0.00657" stop-color="#00A1FF"/>
<stop offset="0.2601" stop-color="#00BEFF"/>
<stop offset="0.5122" stop-color="#00D2FF"/>
<stop offset="0.7604" stop-color="#00DFFF"/>
<stop offset="1" stop-color="#00E3FF"/>
</linearGradient>
<linearGradient id="paint2_linear" x1="51.3815" y1="29.2082" x2="12.4608" y2="29.2082" gradientUnits="userSpaceOnUse">
<stop stop-color="#FFE000"/>
<stop offset="0.4087" stop-color="#FFBD00"/>
<stop offset="0.7754" stop-color="#FFA500"/>
<stop offset="1" stop-color="#FF9C00"/>
</linearGradient>
<linearGradient id="paint3_linear" x1="36.9068" y1="35.6511" x2="7.80373" y2="64.5882" gradientUnits="userSpaceOnUse">
<stop stop-color="#FF3A44"/>
<stop offset="1" stop-color="#C31162"/>
</linearGradient>
<linearGradient id="paint4_linear" x1="8.72507" y1="6.40335" x2="21.6957" y2="19.3198" gradientUnits="userSpaceOnUse">
<stop stop-color="#32A071"/>
<stop offset="0.0685" stop-color="#2DA771"/>
<stop offset="0.4762" stop-color="#15CF74"/>
<stop offset="0.8009" stop-color="#06E775"/>
<stop offset="1" stop-color="#00F076"/>
</linearGradient>
<linearGradient id="paint5_linear" x1="36.8927" y1="40.2681" x2="13.5855" y2="63.613" gradientUnits="userSpaceOnUse">
<stop stop-color="#CC2E36"/>
<stop offset="1" stop-color="#9C0E4E"/>
</linearGradient>
<linearGradient id="paint6_linear" x1="15.6548" y1="11.1319" x2="0.524549" y2="26.2868" gradientUnits="userSpaceOnUse">
<stop stop-color="#008DE0"/>
<stop offset="0.00657" stop-color="#008DE0"/>
<stop offset="0.2601" stop-color="#00A7E0"/>
<stop offset="0.5122" stop-color="#00B8E0"/>
<stop offset="0.7604" stop-color="#00C4E0"/>
<stop offset="1" stop-color="#00C7E0"/>
</linearGradient>
<linearGradient id="paint7_linear" x1="51.3822" y1="29.3242" x2="12.4614" y2="29.3242" gradientUnits="userSpaceOnUse">
<stop stop-color="#E0C500"/>
<stop offset="0.4087" stop-color="#E0A600"/>
<stop offset="0.7754" stop-color="#E09100"/>
<stop offset="1" stop-color="#E08900"/>
</linearGradient>
<linearGradient id="paint8_linear" x1="51.3809" y1="29.3241" x2="12.4602" y2="29.3241" gradientUnits="userSpaceOnUse">
<stop stop-color="#FFE840"/>
<stop offset="0.4087" stop-color="#FFCE40"/>
<stop offset="0.7754" stop-color="#FFBC40"/>
<stop offset="1" stop-color="#FFB540"/>
</linearGradient>
<linearGradient id="paint9_linear" x1="15.6384" y1="11.1594" x2="1.06528" y2="25.1237" gradientUnits="userSpaceOnUse">
<stop stop-color="#40B8FF"/>
<stop offset="0.00657" stop-color="#40B9FF"/>
<stop offset="0.2601" stop-color="#40CEFF"/>
<stop offset="0.5122" stop-color="#40DDFF"/>
<stop offset="0.7604" stop-color="#40E7FF"/>
<stop offset="1" stop-color="#40EAFF"/>
</linearGradient>
<linearGradient id="paint10_linear" x1="8.69636" y1="10.6247" x2="19.1041" y2="21.0493" gradientUnits="userSpaceOnUse">
<stop stop-color="#65B895"/>
<stop offset="0.0685" stop-color="#62BD95"/>
<stop offset="0.4762" stop-color="#50DB97"/>
<stop offset="0.8009" stop-color="#44ED98"/>
<stop offset="1" stop-color="#40F498"/>
</linearGradient>
</defs>
</svg>
