<svg width="38" height="38" viewBox="0 0 38 38" fill="none" xmlns="http://www.w3.org/2000/svg">
<path d="M8.99847 2.27143C8.41363 2.22393 7.76347 2.39315 7.16379 2.81472C6.63535 3.18284 5.49535 4.08831 4.42957 5.11253C3.89816 5.62315 3.3905 6.15456 2.99863 6.67706C2.60378 7.19956 2.25941 7.67753 2.28019 8.37221C2.30097 8.99565 2.36332 10.8392 3.69035 13.6655C5.01738 16.4888 7.59129 20.363 12.6114 25.3861C17.6346 30.4092 21.5088 32.9832 24.3321 34.3102C27.1553 35.6372 29.0019 35.6996 29.6254 35.7203C30.3171 35.7411 30.795 35.3967 31.3175 35.0019C31.84 34.6071 32.3714 34.1024 32.8821 33.571C33.9033 32.5052 34.8088 31.3652 35.1769 30.8367C36.0171 29.6403 35.8775 28.2272 34.9424 27.5711C34.3546 27.1585 28.9485 23.5603 28.135 23.0616C27.3097 22.5569 26.3597 22.7855 25.5107 23.2338C24.8427 23.5871 23.0347 24.6232 22.5182 24.92C22.1293 24.6736 20.6538 23.691 17.4802 20.5174C14.3036 17.3438 13.3239 15.8683 13.0775 15.4794C13.3744 14.9628 14.4075 13.1638 14.7638 12.4839C15.2091 11.6378 15.4585 10.6789 14.9271 9.84768C14.7044 9.4944 13.6921 7.95362 12.6708 6.4069C11.6466 4.86018 10.6758 3.39362 10.4235 3.04331V3.04034C10.0939 2.58612 9.58035 2.31893 8.99847 2.27143ZM8.85894 3.82409C9.06675 3.85081 9.19144 3.93393 9.19144 3.93393C9.31316 4.10315 10.3789 5.70034 11.4002 7.24409C12.4214 8.79081 13.4635 10.3761 13.6446 10.6641C13.6743 10.7086 13.7158 11.2133 13.4189 11.7744V11.7774C13.0835 12.4157 11.5189 15.1499 11.5189 15.1499L11.3022 15.5328L11.5249 15.9128C11.5249 15.9128 12.6916 17.8811 16.4025 21.5921C20.1164 25.303 22.0847 26.4727 22.0847 26.4727L22.4647 26.6953L22.8477 26.4786C22.8477 26.4786 25.576 24.9171 26.2202 24.5786C26.7813 24.2847 27.286 24.3233 27.3454 24.3589C27.8708 24.6825 33.7104 28.5627 34.0696 28.815C34.0814 28.8239 34.3991 29.3049 33.936 29.9639H33.933C33.6539 30.3647 32.7396 31.5255 31.7866 32.5171C31.3086 33.0128 30.8188 33.476 30.4032 33.7877C29.9875 34.0994 29.6164 34.1974 29.6758 34.2003C29.0286 34.1796 27.6007 34.1647 24.9793 32.9327C22.3578 31.7036 18.6172 29.2425 13.6861 24.3085C8.758 19.3803 6.29691 15.6397 5.06488 13.0153C3.83582 10.3939 3.82097 8.96596 3.80019 8.32175C3.80316 8.38112 3.90113 8.00706 4.21285 7.59143C4.52457 7.17581 4.98472 6.683 5.4805 6.20503C6.47504 5.25206 7.63285 4.33768 8.03363 4.05862V4.06159C8.36316 3.83003 8.65113 3.80034 8.85894 3.82409Z" fill="white"/>
</svg>
