<svg width="38" height="41" viewBox="0 0 38 41" fill="none" xmlns="http://www.w3.org/2000/svg">
<path d="M18.9972 2.34082C11.7928 2.34082 5.93164 8.60165 5.93164 16.2972C5.93164 23.2708 14.2557 30.6604 18.3194 37.6327C18.4548 37.8652 18.6929 38.0064 18.9492 38.0065H18.9495C19.2057 38.0065 19.4438 37.8655 19.5793 37.6332C23.7024 30.5675 32.0678 23.3696 32.0678 16.2972C32.0679 8.60157 26.2045 2.34082 18.9972 2.34082ZM18.9972 3.9264C25.386 3.9264 30.5836 9.47594 30.5836 16.2972C30.5835 22.3135 23.2204 29.0327 18.9499 35.7607C14.7522 29.1345 7.41602 22.2105 7.41602 16.2972C7.41602 9.47594 12.6113 3.9264 18.9972 3.9264ZM19.0018 8.76909C15.1969 8.76909 12.1014 12.1578 12.1014 16.3231C12.1014 20.4908 15.1968 23.8815 19.0018 23.8815C22.8044 23.8815 25.8982 20.4908 25.8982 16.3231C25.8982 12.1579 22.8045 8.76909 19.0018 8.76909ZM19.0018 10.3547C21.986 10.3547 24.4138 13.032 24.4138 16.3231C24.4138 19.6165 21.986 22.2959 19.0018 22.2959C16.0153 22.2959 13.5857 19.6165 13.5857 16.3231C13.5857 13.032 16.0153 10.3547 19.0018 10.3547Z" fill="white"/>
</svg>
