<svg width="9" height="15" viewBox="0 0 9 15" fill="none" xmlns="http://www.w3.org/2000/svg">
<path d="M7.40465 -6.15493e-08C7.81081 -4.5744e-08 8.20134 0.151539 8.51378 0.439463C9.12302 1.03047 9.12302 2.00032 8.51378 2.59132L3.78044 7.19811L8.5294 11.8049C9.13864 12.3959 9.13864 13.3657 8.5294 13.9567C7.92016 14.5477 6.92038 14.5477 6.31114 13.9567L0.45305 8.27403C0.156241 7.98611 2.63294e-05 7.60726 2.63495e-05 7.1981C2.63695e-05 6.78895 0.171862 6.4101 0.45305 6.12218L6.29551 0.439463C6.60795 0.151539 7.01411 -7.67466e-08 7.40465 -6.15493e-08Z" fill="#036FEE"/>
</svg>
