<svg width="40" height="40" viewBox="0 0 40 40" fill="none" xmlns="http://www.w3.org/2000/svg">
<circle cx="20" cy="20" r="20" fill="#27292A"/>
<path d="M30.4497 9.75214C30.177 9.7641 29.9115 9.84001 29.672 9.93589C29.4351 10.0311 28.0708 10.6134 26.0561 11.4748C24.0414 12.3362 21.4225 13.4578 18.8264 14.5701C13.6342 16.7946 8.53204 18.9834 8.53204 18.9834L8.56923 18.9692C8.56923 18.9692 8.26129 19.0721 7.94907 19.2896C7.79297 19.3984 7.62502 19.5388 7.48751 19.7435C7.35 19.9483 7.24947 20.2384 7.28736 20.5453C7.42042 21.6231 8.53751 21.9289 8.53751 21.9289L8.54189 21.931L13.5272 23.6373C13.6543 24.0613 15.0393 28.6838 15.3439 29.6628C15.5122 30.204 15.6697 30.5162 15.8339 30.7292C15.9161 30.8357 16.0023 30.9182 16.0975 30.9785C16.1354 31.0025 16.1752 31.0205 16.2145 31.0365C16.2154 31.0369 16.2159 31.0361 16.2167 31.0365C16.2216 31.0386 16.2261 31.0388 16.231 31.0409L16.2178 31.0376C16.227 31.0413 16.236 31.0475 16.2452 31.0507C16.2629 31.057 16.2738 31.0567 16.2966 31.0617C16.8675 31.261 17.34 30.891 17.34 30.891L17.3597 30.8757L20.4222 28.0353L25.3922 31.9104L25.4545 31.9389C26.3245 32.3251 27.1112 32.1096 27.5469 31.7551C27.9826 31.4006 28.1539 30.9435 28.1539 30.9435L28.1725 30.8954L31.8245 11.8609C31.918 11.435 31.9313 11.0669 31.8431 10.7343C31.755 10.4017 31.5409 10.1126 31.2722 9.95229C31.0035 9.79203 30.7224 9.74017 30.4497 9.75214ZM30.4792 10.8907C30.59 10.8856 30.6721 10.8983 30.698 10.9137C30.7239 10.9291 30.7355 10.9271 30.7603 11.0209C30.7852 11.1147 30.7986 11.3122 30.7308 11.6214L30.7286 11.6279L27.0974 30.552C27.0888 30.571 27.0131 30.7461 26.8403 30.8867C26.6641 31.0301 26.4681 31.142 25.9478 30.9239L20.513 26.6856L20.3599 26.5653L20.3566 26.5685L18.7313 25.349L27.8652 14.6029C27.9354 14.5206 27.9802 14.4196 27.9942 14.3123C28.0083 14.205 27.9909 14.096 27.9443 13.9983C27.8977 13.9007 27.8238 13.8186 27.7315 13.7621C27.6392 13.7056 27.5326 13.677 27.4244 13.6798C27.3187 13.6825 27.2159 13.7151 27.128 13.7739L13.9111 22.5851L8.91814 20.8756C8.91814 20.8756 8.42234 20.5997 8.39861 20.4074C8.39729 20.3968 8.39144 20.4064 8.4172 20.3681C8.44296 20.3297 8.50772 20.265 8.58892 20.2084C8.75131 20.0952 8.93673 20.0268 8.93673 20.0268L8.95532 20.0203L8.97392 20.0126C8.97392 20.0126 14.0764 17.8237 19.2683 15.5993C21.8642 14.4871 24.4827 13.3663 26.4969 12.5051C28.5105 11.6442 29.9656 11.0245 30.0888 10.9749C30.229 10.9188 30.3685 10.8959 30.4792 10.8907ZM24.422 16.9239L17.4953 25.0734L17.492 25.0767C17.4812 25.0897 17.471 25.1032 17.4614 25.1171C17.4504 25.1323 17.4402 25.148 17.4308 25.1642C17.3919 25.2302 17.3669 25.3036 17.3575 25.3796C17.3575 25.3811 17.3575 25.3826 17.3575 25.384L16.4552 29.4418C16.4402 29.398 16.4297 29.3819 16.4136 29.3303V29.3292C16.127 28.4083 14.8203 24.0488 14.6395 23.4459L24.422 16.9239ZM18.2774 26.4089L19.522 27.3429L17.6933 29.0382L18.2774 26.4089Z" fill="white"/>
</svg>
