<svg width="40" height="40" viewBox="0 0 40 40" fill="none" xmlns="http://www.w3.org/2000/svg">
<circle cx="20" cy="20" r="20" fill="#27292A"/>
<g clip-path="url(#clip0)">
<path d="M33.6674 11.4992C32.6327 11.9586 31.5237 12.267 30.3577 12.407C31.5477 11.6939 32.4621 10.5651 32.8909 9.22199C31.7796 9.88043 30.5437 10.3595 29.2334 10.6176C28.1834 9.49762 26.6871 8.7998 25.0312 8.7998C21.8505 8.7998 19.2715 11.3767 19.2715 14.5573C19.2715 15.0079 19.324 15.4476 19.4224 15.8698C14.6362 15.6292 10.3946 13.3367 7.55305 9.85199C7.05648 10.7051 6.7743 11.6939 6.7743 12.7482C6.7743 14.7454 7.7893 16.5086 9.33586 17.5432C8.39086 17.5126 7.50273 17.2523 6.72617 16.8214C6.72617 16.8454 6.72617 16.8695 6.72617 16.8936C6.72617 19.6848 8.71242 22.0101 11.344 22.5417C10.8627 22.6729 10.353 22.7429 9.82805 22.7429C9.45617 22.7429 9.09523 22.7079 8.74305 22.6379C9.47805 24.9239 11.6043 26.5929 14.1221 26.6389C12.1534 28.1832 9.67055 29.102 6.97117 29.102C6.50523 29.102 6.04805 29.0757 5.59961 29.0211C8.14586 30.6573 11.1734 31.6089 14.4262 31.6089C25.018 31.6089 30.8105 22.8348 30.8105 15.2267C30.8105 14.9773 30.804 14.7257 30.7952 14.4807C31.9196 13.6692 32.8952 12.6542 33.6674 11.4992Z" fill="white"/>
</g>
<defs>
<clipPath id="clip0">
<rect width="28" height="28" fill="white" transform="translate(5.59961 6.3999)"/>
</clipPath>
</defs>
</svg>
