<svg width="212" height="60" viewBox="0 0 212 60" fill="none" xmlns="http://www.w3.org/2000/svg">
<rect width="212" height="60" rx="10" fill="url(#paint0_linear)"/>
<path d="M50.134 28.4644C50.0932 23.5997 54.1154 21.2353 54.2921 21.1266C52.0092 17.811 48.4762 17.349 47.2396 17.3082C44.2773 16.9957 41.3965 19.0883 39.8882 19.0883C38.3527 19.0883 36.0154 17.349 33.5151 17.3897C30.2946 17.4441 27.2644 19.3057 25.6202 22.2137C22.2094 28.1247 24.7505 36.8214 28.0253 41.6046C29.6696 43.9418 31.572 46.5644 34.0858 46.4693C36.5318 46.3742 37.4558 44.9066 40.4045 44.9066C43.3397 44.9066 44.1958 46.4693 46.7504 46.415C49.3866 46.3742 51.0308 44.0641 52.6207 41.6997C54.5095 39.0228 55.2705 36.373 55.2976 36.2371C55.2297 36.2099 50.1883 34.2803 50.134 28.4644Z" fill="white"/>
<path d="M45.3098 14.1692C46.6279 12.525 47.5247 10.2829 47.2801 8C45.3777 8.08153 42.9861 9.31809 41.6137 10.9351C40.4043 12.3619 39.3172 14.6856 39.589 16.8734C41.736 17.0364 43.9373 15.7863 45.3098 14.1692Z" fill="white"/>
<path d="M85.6267 46.1297H82.2024L80.3272 40.2322H73.8046L72.0245 46.1297H68.6953L75.1499 26.0593H79.1449L85.6267 46.1297ZM79.77 37.7591L78.0714 32.5275C77.8948 31.984 77.5551 30.7338 77.0659 28.7499H76.9979C76.7941 29.6059 76.4816 30.8697 76.0467 32.5275L74.3753 37.7591H79.77Z" fill="white"/>
<path d="M102.219 38.7239C102.219 41.1834 101.553 43.1266 100.208 44.5534C99.0123 45.8307 97.5176 46.4558 95.7511 46.4558C93.8351 46.4558 92.4626 45.7764 91.6201 44.4039V52H88.3996V36.4138C88.3996 34.8647 88.3589 33.2885 88.2773 31.6578H91.1038L91.2804 33.9543H91.3348C92.4083 32.2286 94.0389 31.3589 96.2131 31.3589C97.9252 31.3589 99.3385 32.0383 100.48 33.3836C101.649 34.7424 102.219 36.509 102.219 38.7239ZM98.9444 38.8326C98.9444 37.4194 98.6319 36.2644 97.9932 35.3539C97.3002 34.4027 96.3626 33.9271 95.1939 33.9271C94.4058 33.9271 93.6856 34.1989 93.0334 34.7153C92.3947 35.2452 91.9599 35.9247 91.7696 36.7807C91.6745 37.1748 91.6201 37.5009 91.6201 37.7591V40.1779C91.6201 41.2242 91.9463 42.1211 92.5849 42.8412C93.2236 43.5614 94.0661 43.9283 95.0988 43.9283C96.3082 43.9283 97.2458 43.4527 97.9252 42.5287C98.6047 41.5911 98.9444 40.3681 98.9444 38.8326Z" fill="white"/>
<path d="M118.85 38.7239C118.85 41.1834 118.184 43.1266 116.839 44.5534C115.643 45.8307 114.148 46.4558 112.382 46.4558C110.466 46.4558 109.093 45.7764 108.251 44.4039V52H105.03V36.4138C105.03 34.8647 104.99 33.2885 104.908 31.6578H107.735L107.911 33.9543H107.966C109.039 32.2286 110.67 31.3589 112.844 31.3589C114.556 31.3589 115.969 32.0383 117.111 33.3836C118.279 34.7424 118.85 36.509 118.85 38.7239ZM115.575 38.8326C115.575 37.4194 115.263 36.2644 114.624 35.3539C113.931 34.4027 112.993 33.9271 111.825 33.9271C111.037 33.9271 110.316 34.1989 109.664 34.7153C109.026 35.2452 108.604 35.9247 108.4 36.7807C108.305 37.1748 108.251 37.5009 108.251 37.7591V40.1779C108.251 41.2242 108.577 42.1211 109.216 42.8412C109.854 43.5614 110.697 43.9283 111.73 43.9283C112.939 43.9283 113.89 43.4527 114.556 42.5287C115.249 41.5911 115.575 40.3681 115.575 38.8326Z" fill="white"/>
<path d="M137.467 40.504C137.467 42.2161 136.869 43.6022 135.687 44.6757C134.382 45.8443 132.561 46.4286 130.224 46.4286C128.063 46.4286 126.338 46.0073 125.033 45.1784L125.781 42.5015C127.194 43.3304 128.743 43.7516 130.428 43.7516C131.637 43.7516 132.588 43.4799 133.254 42.9363C133.934 42.3928 134.273 41.659 134.273 40.7486C134.273 39.9332 133.988 39.2538 133.445 38.6967C132.887 38.1395 131.963 37.6232 130.672 37.1476C127.126 35.8295 125.373 33.9135 125.373 31.3996C125.373 29.7554 125.998 28.4101 127.235 27.3502C128.471 26.3039 130.115 25.7739 132.167 25.7739C133.988 25.7739 135.51 26.0865 136.719 26.7251L135.904 29.3341C134.763 28.7227 133.485 28.4101 132.045 28.4101C130.917 28.4101 130.02 28.6955 129.382 29.239C128.852 29.7418 128.58 30.3397 128.58 31.0599C128.58 31.848 128.892 32.5139 129.504 33.0166C130.034 33.4922 131.012 34.0086 132.425 34.5657C134.151 35.2588 135.415 36.0741 136.23 37.0117C137.059 37.9493 137.467 39.1179 137.467 40.504Z" fill="white"/>
<path d="M148.12 34.0764H144.573V41.1017C144.573 42.8818 145.198 43.7786 146.448 43.7786C147.019 43.7786 147.495 43.7243 147.875 43.6292L147.97 46.0751C147.332 46.3061 146.503 46.4284 145.47 46.4284C144.193 46.4284 143.214 46.0343 142.494 45.2598C141.774 44.4853 141.421 43.1807 141.421 41.3599V34.0628H139.314V31.6576H141.421V29.0078L144.573 28.0566V31.6576H148.12V34.0764Z" fill="white"/>
<path d="M164.073 38.7781C164.073 41.0066 163.435 42.8275 162.171 44.2543C160.839 45.7219 159.073 46.4557 156.871 46.4557C154.752 46.4557 153.053 45.749 151.789 44.3494C150.525 42.9498 149.9 41.1697 149.9 39.0227C149.9 36.7806 150.553 34.9461 151.844 33.5193C153.148 32.0925 154.901 31.3723 157.102 31.3723C159.222 31.3723 160.934 32.0789 162.225 33.4921C163.462 34.851 164.073 36.6175 164.073 38.7781ZM160.744 38.846C160.744 37.5144 160.459 36.3865 159.888 35.4353C159.209 34.2803 158.244 33.7096 156.994 33.7096C155.703 33.7096 154.711 34.2803 154.045 35.4353C153.461 36.3865 153.189 37.5415 153.189 38.914C153.189 40.2457 153.474 41.3871 154.045 42.3247C154.738 43.4797 155.716 44.0505 156.966 44.0505C158.189 44.0505 159.154 43.4662 159.861 42.2975C160.445 41.3192 160.744 40.1777 160.744 38.846Z" fill="white"/>
<path d="M174.536 34.4843C174.224 34.4299 173.884 34.4027 173.517 34.4027C172.389 34.4027 171.506 34.824 170.895 35.6801C170.365 36.4274 170.093 37.3922 170.093 38.5337V46.1297H166.872V36.21C166.872 34.5386 166.845 33.0167 166.777 31.6578H169.577L169.699 34.4299H169.794C170.134 33.4787 170.664 32.7042 171.397 32.1334C172.118 31.6171 172.892 31.3589 173.721 31.3589C174.02 31.3589 174.292 31.3861 174.523 31.4132L174.536 34.4843Z" fill="white"/>
<path d="M188.913 38.2073C188.913 38.778 188.873 39.2672 188.791 39.6613H179.143C179.184 41.0881 179.646 42.1887 180.543 42.9361C181.358 43.602 182.404 43.9417 183.695 43.9417C185.122 43.9417 186.427 43.7107 187.595 43.2622L188.098 45.4908C186.726 46.0887 185.109 46.3876 183.247 46.3876C181.005 46.3876 179.238 45.7218 177.961 44.4037C176.684 43.0856 176.045 41.3055 176.045 39.0905C176.045 36.9164 176.643 35.0955 177.839 33.6415C179.089 32.0924 180.774 31.3179 182.894 31.3179C184.973 31.3179 186.562 32.0924 187.622 33.6415C188.478 34.8917 188.913 36.4 188.913 38.2073ZM185.842 37.3784C185.869 36.4272 185.652 35.5983 185.217 34.9053C184.66 34.0084 183.804 33.56 182.663 33.56C181.616 33.56 180.76 33.9948 180.108 34.8645C179.578 35.5575 179.252 36.4 179.157 37.3648L185.842 37.3784Z" fill="white"/>
<path d="M78.2224 18.8844H76.5374L75.6134 15.99H72.4065L71.5232 18.8844H69.8926L73.0587 9.01904H75.0155L78.2224 18.8844ZM75.328 14.767L74.4991 12.1852C74.4176 11.927 74.2545 11.3019 73.9963 10.3235H73.9692C73.8604 10.7448 73.7246 11.3563 73.4936 12.1852L72.6782 14.767H75.328Z" fill="white"/>
<path d="M86.1573 11.7639L83.4668 18.8843H81.9313L79.3223 11.7639H81.0208L82.2302 15.528C82.4341 16.153 82.6107 16.7509 82.7466 17.3217H82.7874C82.9097 16.8053 83.0863 16.2074 83.3037 15.528L84.4995 11.7639H86.1573Z" fill="white"/>
<path d="M91.8929 18.8843L91.7706 18.069H91.7298C91.2406 18.7213 90.5476 19.0474 89.6507 19.0474C88.3734 19.0474 87.4766 18.1505 87.4766 16.9547C87.4766 15.2018 88.9985 14.2914 91.6347 14.2914V14.1555C91.6347 13.2179 91.1319 12.7559 90.1535 12.7559C89.4469 12.7559 88.8354 12.9325 88.2919 13.2858L87.9658 12.2531C88.618 11.8454 89.4469 11.6416 90.4117 11.6416C92.2733 11.6416 93.2109 12.62 93.2109 14.5903V17.2129C93.2109 17.9331 93.2381 18.4903 93.3197 18.9115L91.8929 18.8843ZM91.6754 15.3377C89.9225 15.3377 89.0393 15.7589 89.0393 16.7781C89.0393 17.5255 89.4877 17.8924 90.1263 17.8924C90.9281 17.8924 91.6754 17.2809 91.6754 16.4384V15.3377Z" fill="white"/>
<path d="M96.7306 10.5954C96.2006 10.5954 95.793 10.1877 95.793 9.64416C95.793 9.10061 96.2142 8.70654 96.7578 8.70654C97.3013 8.70654 97.7361 9.10061 97.7225 9.64416C97.7225 10.2149 97.3149 10.5954 96.7306 10.5954ZM95.9696 11.764H97.5459V18.8708H95.9696V11.764Z" fill="white"/>
<path d="M100.357 8.50269H101.934V18.8708H100.357V8.50269Z" fill="white"/>
<path d="M108.647 18.8845L108.524 18.0692H108.484C107.995 18.7214 107.301 19.0475 106.405 19.0475C105.127 19.0475 104.23 18.1507 104.23 16.9549C104.23 15.202 105.752 14.2915 108.389 14.2915V14.1557C108.389 13.218 107.886 12.756 106.907 12.756C106.201 12.756 105.589 12.9327 105.046 13.286L104.72 12.2397C105.372 11.832 106.201 11.6282 107.166 11.6282C109.027 11.6282 109.965 12.6066 109.965 14.5769V17.1995C109.965 17.9197 109.992 18.4768 110.06 18.8981H108.647V18.8845ZM108.429 15.3379C106.676 15.3379 105.793 15.7591 105.793 16.7783C105.793 17.5256 106.242 17.8925 106.88 17.8925C107.682 17.8925 108.429 17.281 108.429 16.4385V15.3379Z" fill="white"/>
<path d="M116.38 19.0474C115.374 19.0474 114.627 18.6262 114.137 17.7837H114.11L114.015 18.8844H112.67C112.711 18.3137 112.724 17.675 112.724 16.9684V8.50269H114.314V12.8103H114.341C114.817 12.0221 115.564 11.6281 116.611 11.6281C118.323 11.6281 119.519 13.0956 119.519 15.229C119.519 17.4304 118.187 19.0474 116.38 19.0474ZM116.053 12.8646C115.143 12.8646 114.314 13.6528 114.314 14.7534V16.0036C114.314 16.982 115.062 17.7837 116.026 17.7837C117.209 17.7837 117.915 16.8189 117.915 15.2834C117.915 13.843 117.181 12.8646 116.053 12.8646Z" fill="white"/>
<path d="M121.855 8.50269H123.432V18.8708H121.855V8.50269Z" fill="white"/>
<path d="M132.034 15.7048H127.291C127.319 17.0501 128.215 17.8111 129.534 17.8111C130.24 17.8111 130.879 17.6888 131.45 17.4713L131.694 18.572C131.028 18.871 130.24 19.0069 129.316 19.0069C127.088 19.0069 125.77 17.6072 125.77 15.4195C125.77 13.2453 127.115 11.6011 129.14 11.6011C130.947 11.6011 132.102 12.9463 132.102 14.9846C132.102 15.27 132.088 15.5146 132.034 15.7048ZM130.593 14.577C130.593 13.4763 130.036 12.7018 129.031 12.7018C128.12 12.7018 127.414 13.4899 127.305 14.577H130.593Z" fill="white"/>
<path d="M141.614 19.0475C139.535 19.0475 138.189 17.4984 138.189 15.3922C138.189 13.1909 139.562 11.6282 141.736 11.6282C143.788 11.6282 145.16 13.1093 145.16 15.2699C145.16 17.4849 143.747 19.0475 141.614 19.0475ZM141.682 12.7832C140.54 12.7832 139.806 13.8567 139.806 15.3379C139.806 16.8054 140.554 17.8653 141.668 17.8653C142.782 17.8653 143.53 16.7239 143.53 15.2971C143.516 13.8567 142.796 12.7832 141.682 12.7832Z" fill="white"/>
<path d="M153.653 18.8844H152.077V14.7942C152.077 13.5305 151.588 12.9054 150.637 12.9054C149.699 12.9054 149.06 13.7071 149.06 14.6448V18.8708H147.484V13.8023C147.484 13.1772 147.47 12.4978 147.43 11.764H148.816L148.884 12.8647H148.924C149.346 12.1037 150.215 11.6145 151.18 11.6145C152.675 11.6145 153.653 12.7559 153.653 14.6176V18.8844Z" fill="white"/>
<path d="M163.993 12.9596H162.254V16.4111C162.254 17.2944 162.566 17.7292 163.178 17.7292C163.45 17.7292 163.694 17.702 163.884 17.6613L163.925 18.8571C163.613 18.9794 163.205 19.0337 162.702 19.0337C161.452 19.0337 160.718 18.3407 160.718 16.547V12.9596H159.686V11.7774H160.718V10.4729L162.267 9.99731V11.7638H164.007V12.9596" fill="white"/>
<path d="M172.365 18.8844H170.788V14.8214C170.788 13.5441 170.299 12.9054 169.348 12.9054C168.533 12.9054 167.772 13.4625 167.772 14.5904V18.8708H166.195V8.50269H167.772V12.7695H167.799C168.302 11.995 169.008 11.6145 169.932 11.6145C171.441 11.6145 172.365 12.7831 172.365 14.6447V18.8844Z" fill="white"/>
<path d="M180.436 15.7048H175.694C175.721 17.0501 176.618 17.8111 177.936 17.8111C178.643 17.8111 179.281 17.6888 179.852 17.4713L180.097 18.572C179.431 18.871 178.643 19.0069 177.719 19.0069C175.49 19.0069 174.172 17.6072 174.172 15.4195C174.172 13.2453 175.517 11.6011 177.542 11.6011C179.349 11.6011 180.504 12.9463 180.504 14.9846C180.504 15.27 180.491 15.5146 180.436 15.7048ZM178.996 14.577C178.996 13.4763 178.439 12.7018 177.433 12.7018C176.523 12.7018 175.803 13.4899 175.707 14.577H178.996Z" fill="white"/>
<defs>
<linearGradient id="paint0_linear" x1="106" y1="0" x2="106" y2="105" gradientUnits="userSpaceOnUse">
<stop stop-color="#313437"/>
<stop offset="1"/>
</linearGradient>
</defs>
</svg>
