<svg width="212" height="61" viewBox="0 0 212 61" fill="none" xmlns="http://www.w3.org/2000/svg">
<rect y="0.5" width="212" height="60" rx="10" fill="url(#paint0_linear)"/>
<path d="M50.134 28.9645C50.0932 24.0998 54.1154 21.7354 54.2921 21.6266C52.0092 18.311 48.4762 17.849 47.2396 17.8082C44.2773 17.4957 41.3965 19.5884 39.8882 19.5884C38.3527 19.5884 36.0154 17.849 33.5151 17.8898C30.2946 17.9441 27.2644 19.8058 25.6202 22.7137C22.2094 28.6248 24.7505 37.3215 28.0253 42.1047C29.6696 44.4419 31.572 47.0645 34.0858 46.9694C36.5318 46.8743 37.4558 45.4067 40.4045 45.4067C43.3397 45.4067 44.1958 46.9694 46.7504 46.915C49.3866 46.8743 51.0308 44.5642 52.6207 42.1998C54.5095 39.5228 55.2705 36.873 55.2976 36.7372C55.2297 36.71 50.1883 34.7804 50.134 28.9645Z" fill="white"/>
<path d="M45.3098 14.6692C46.6279 13.025 47.5247 10.7829 47.2801 8.5C45.3777 8.58153 42.9861 9.81809 41.6137 11.4351C40.4043 12.8619 39.3172 15.1856 39.589 17.3734C41.736 17.5364 43.9373 16.2863 45.3098 14.6692Z" fill="white"/>
<path d="M85.6267 46.6297H82.2024L80.3272 40.7323H73.8046L72.0245 46.6297H68.6953L75.1499 26.5594H79.1449L85.6267 46.6297ZM79.77 38.2592L78.0714 33.0276C77.8948 32.484 77.5551 31.2339 77.0659 29.2499H76.9979C76.7941 30.106 76.4816 31.3697 76.0467 33.0276L74.3753 38.2592H79.77Z" fill="white"/>
<path d="M102.219 39.224C102.219 41.6835 101.553 43.6267 100.208 45.0535C99.0123 46.3308 97.5176 46.9559 95.7511 46.9559C93.8351 46.9559 92.4626 46.2764 91.6201 44.904V52.5H88.3996V36.9139C88.3996 35.3648 88.3589 33.7885 88.2773 32.1579H91.1038L91.2804 34.4544H91.3348C92.4083 32.7286 94.0389 31.8589 96.2131 31.8589C97.9252 31.8589 99.3385 32.5384 100.48 33.8836C101.649 35.2425 102.219 37.009 102.219 39.224ZM98.9444 39.3327C98.9444 37.9195 98.6319 36.7644 97.9932 35.854C97.3002 34.9028 96.3626 34.4272 95.1939 34.4272C94.4058 34.4272 93.6856 34.699 93.0334 35.2153C92.3947 35.7453 91.9599 36.4247 91.7696 37.2808C91.6745 37.6749 91.6201 38.001 91.6201 38.2592V40.6779C91.6201 41.7243 91.9463 42.6211 92.5849 43.3413C93.2236 44.0615 94.0661 44.4284 95.0988 44.4284C96.3082 44.4284 97.2458 43.9528 97.9252 43.0288C98.6047 42.0912 98.9444 40.8682 98.9444 39.3327Z" fill="white"/>
<path d="M118.85 39.224C118.85 41.6835 118.184 43.6267 116.839 45.0535C115.643 46.3308 114.148 46.9559 112.382 46.9559C110.466 46.9559 109.093 46.2764 108.251 44.904V52.5H105.03V36.9139C105.03 35.3648 104.99 33.7885 104.908 32.1579H107.735L107.911 34.4544H107.966C109.039 32.7286 110.67 31.8589 112.844 31.8589C114.556 31.8589 115.969 32.5384 117.111 33.8836C118.279 35.2425 118.85 37.009 118.85 39.224ZM115.575 39.3327C115.575 37.9195 115.263 36.7644 114.624 35.854C113.931 34.9028 112.993 34.4272 111.825 34.4272C111.037 34.4272 110.316 34.699 109.664 35.2153C109.026 35.7453 108.604 36.4247 108.4 37.2808C108.305 37.6749 108.251 38.001 108.251 38.2592V40.6779C108.251 41.7243 108.577 42.6211 109.216 43.3413C109.854 44.0615 110.697 44.4284 111.73 44.4284C112.939 44.4284 113.89 43.9528 114.556 43.0288C115.249 42.0912 115.575 40.8682 115.575 39.3327Z" fill="white"/>
<path d="M137.467 41.004C137.467 42.7162 136.869 44.1022 135.687 45.1757C134.382 46.3443 132.561 46.9286 130.224 46.9286C128.063 46.9286 126.338 46.5074 125.033 45.6785L125.781 43.0015C127.194 43.8304 128.743 44.2517 130.428 44.2517C131.637 44.2517 132.588 43.9799 133.254 43.4364C133.934 42.8928 134.273 42.1591 134.273 41.2486C134.273 40.4333 133.988 39.7539 133.445 39.1967C132.887 38.6396 131.963 38.1232 130.672 37.6476C127.126 36.3295 125.373 34.4136 125.373 31.8997C125.373 30.2554 125.998 28.9102 127.235 27.8503C128.471 26.8039 130.115 26.274 132.167 26.274C133.988 26.274 135.51 26.5865 136.719 27.2252L135.904 29.8342C134.763 29.2227 133.485 28.9102 132.045 28.9102C130.917 28.9102 130.02 29.1955 129.382 29.7391C128.852 30.2419 128.58 30.8398 128.58 31.5599C128.58 32.3481 128.892 33.0139 129.504 33.5167C130.034 33.9923 131.012 34.5087 132.425 35.0658C134.151 35.7588 135.415 36.5741 136.23 37.5118C137.059 38.4494 137.467 39.618 137.467 41.004Z" fill="white"/>
<path d="M148.12 34.5766H144.573V41.6019C144.573 43.382 145.198 44.2788 146.448 44.2788C147.019 44.2788 147.495 44.2245 147.875 44.1294L147.97 46.5753C147.332 46.8063 146.503 46.9286 145.47 46.9286C144.193 46.9286 143.214 46.5345 142.494 45.76C141.774 44.9854 141.421 43.6809 141.421 41.8601V34.563H139.314V32.1578H141.421V29.508L144.573 28.5568V32.1578H148.12V34.5766Z" fill="white"/>
<path d="M164.073 39.2782C164.073 41.5067 163.435 43.3276 162.171 44.7544C160.839 46.222 159.073 46.9558 156.871 46.9558C154.752 46.9558 153.053 46.2492 151.789 44.8495C150.525 43.4499 149.9 41.6698 149.9 39.5228C149.9 37.2807 150.553 35.4462 151.844 34.0194C153.148 32.5926 154.901 31.8724 157.102 31.8724C159.222 31.8724 160.934 32.579 162.225 33.9923C163.462 35.3511 164.073 37.1176 164.073 39.2782ZM160.744 39.3462C160.744 38.0145 160.459 36.8866 159.888 35.9354C159.209 34.7804 158.244 34.2097 156.994 34.2097C155.703 34.2097 154.711 34.7804 154.045 35.9354C153.461 36.8866 153.189 38.0417 153.189 39.4141C153.189 40.7458 153.474 41.8872 154.045 42.8248C154.738 43.9799 155.716 44.5506 156.966 44.5506C158.189 44.5506 159.154 43.9663 159.861 42.7977C160.445 41.8193 160.744 40.6778 160.744 39.3462Z" fill="white"/>
<path d="M174.536 34.9843C174.224 34.93 173.884 34.9028 173.517 34.9028C172.389 34.9028 171.506 35.324 170.895 36.1801C170.365 36.9275 170.093 37.8923 170.093 39.0337V46.6298H166.872V36.7101C166.872 35.0387 166.845 33.5168 166.777 32.1579H169.577L169.699 34.93H169.794C170.134 33.9788 170.664 33.2042 171.397 32.6335C172.118 32.1171 172.892 31.8589 173.721 31.8589C174.02 31.8589 174.292 31.8861 174.523 31.9133L174.536 34.9843Z" fill="white"/>
<path d="M188.913 38.7075C188.913 39.2782 188.873 39.7674 188.791 40.1615H179.143C179.184 41.5883 179.646 42.6889 180.543 43.4363C181.358 44.1021 182.404 44.4419 183.695 44.4419C185.122 44.4419 186.427 44.2109 187.595 43.7624L188.098 45.991C186.726 46.5889 185.109 46.8878 183.247 46.8878C181.005 46.8878 179.238 46.222 177.961 44.9039C176.684 43.5858 176.045 41.8057 176.045 39.5907C176.045 37.4166 176.643 35.5957 177.839 34.1417C179.089 32.5926 180.774 31.8181 182.894 31.8181C184.973 31.8181 186.562 32.5926 187.622 34.1417C188.478 35.3919 188.913 36.9002 188.913 38.7075ZM185.842 37.8786C185.869 36.9274 185.652 36.0985 185.217 35.4054C184.66 34.5086 183.804 34.0602 182.663 34.0602C181.616 34.0602 180.76 34.495 180.108 35.3647C179.578 36.0577 179.252 36.9002 179.157 37.865L185.842 37.8786Z" fill="white"/>
<path d="M78.2224 19.3842H76.5374L75.6134 16.4899H72.4065L71.5232 19.3842H69.8926L73.0587 9.51892H75.0155L78.2224 19.3842ZM75.328 15.2669L74.4991 12.6851C74.4176 12.4269 74.2545 11.8018 73.9963 10.8234H73.9692C73.8604 11.2447 73.7246 11.8562 73.4936 12.6851L72.6782 15.2669H75.328Z" fill="white"/>
<path d="M86.1573 12.2638L83.4668 19.3842H81.9313L79.3223 12.2638H81.0208L82.2302 16.0278C82.4341 16.6529 82.6107 17.2508 82.7466 17.8215H82.7874C82.9097 17.3052 83.0863 16.7073 83.3037 16.0278L84.4995 12.2638H86.1573Z" fill="white"/>
<path d="M91.8929 19.3843L91.7706 18.569H91.7298C91.2406 19.2213 90.5476 19.5474 89.6507 19.5474C88.3734 19.5474 87.4766 18.6505 87.4766 17.4547C87.4766 15.7018 88.9985 14.7914 91.6347 14.7914V14.6555C91.6347 13.7179 91.1319 13.2559 90.1535 13.2559C89.4469 13.2559 88.8354 13.4325 88.2919 13.7858L87.9658 12.7531C88.618 12.3454 89.4469 12.1416 90.4117 12.1416C92.2733 12.1416 93.2109 13.12 93.2109 15.0903V17.7129C93.2109 18.4331 93.2381 18.9903 93.3197 19.4115L91.8929 19.3843ZM91.6754 15.8377C89.9225 15.8377 89.0393 16.2589 89.0393 17.2781C89.0393 18.0255 89.4877 18.3924 90.1263 18.3924C90.9281 18.3924 91.6754 17.7809 91.6754 16.9384V15.8377Z" fill="white"/>
<path d="M96.7306 11.0952C96.2006 11.0952 95.793 10.6876 95.793 10.144C95.793 9.60049 96.2142 9.20642 96.7578 9.20642C97.3013 9.20642 97.7361 9.60049 97.7225 10.144C97.7225 10.7148 97.3149 11.0952 96.7306 11.0952ZM95.9696 12.2639H97.5459V19.3707H95.9696V12.2639Z" fill="white"/>
<path d="M100.357 9.00256H101.934V19.3707H100.357V9.00256Z" fill="white"/>
<path d="M108.647 19.3842L108.524 18.5689H108.484C107.995 19.2212 107.301 19.5473 106.405 19.5473C105.127 19.5473 104.23 18.6505 104.23 17.4547C104.23 15.7017 105.752 14.7913 108.389 14.7913V14.6554C108.389 13.7178 107.886 13.2558 106.907 13.2558C106.201 13.2558 105.589 13.4324 105.046 13.7857L104.72 12.7394C105.372 12.3318 106.201 12.1279 107.166 12.1279C109.027 12.1279 109.965 13.1063 109.965 15.0767V17.6993C109.965 18.4194 109.992 18.9766 110.06 19.3978H108.647V19.3842ZM108.429 15.8376C106.676 15.8376 105.793 16.2589 105.793 17.278C105.793 18.0254 106.242 18.3923 106.88 18.3923C107.682 18.3923 108.429 17.7808 108.429 16.9383V15.8376Z" fill="white"/>
<path d="M116.38 19.5473C115.374 19.5473 114.627 19.1261 114.137 18.2836H114.11L114.015 19.3842H112.67C112.711 18.8135 112.724 18.1749 112.724 17.4683V9.00256H114.314V13.3101H114.341C114.817 12.522 115.564 12.1279 116.611 12.1279C118.323 12.1279 119.519 13.5955 119.519 15.7289C119.519 17.9303 118.187 19.5473 116.38 19.5473ZM116.053 13.3645C115.143 13.3645 114.314 14.1526 114.314 15.2533V16.5035C114.314 17.4818 115.062 18.2836 116.026 18.2836C117.209 18.2836 117.915 17.3188 117.915 15.7833C117.915 14.3429 117.181 13.3645 116.053 13.3645Z" fill="white"/>
<path d="M121.855 9.00256H123.432V19.3707H121.855V9.00256Z" fill="white"/>
<path d="M132.034 16.2046H127.291C127.319 17.5499 128.215 18.3109 129.534 18.3109C130.24 18.3109 130.879 18.1886 131.45 17.9712L131.694 19.0718C131.028 19.3708 130.24 19.5067 129.316 19.5067C127.088 19.5067 125.77 18.107 125.77 15.9193C125.77 13.7451 127.115 12.1009 129.14 12.1009C130.947 12.1009 132.102 13.4462 132.102 15.4845C132.102 15.7698 132.088 16.0144 132.034 16.2046ZM130.593 15.0768C130.593 13.9761 130.036 13.2016 129.031 13.2016C128.12 13.2016 127.414 13.9897 127.305 15.0768H130.593Z" fill="white"/>
<path d="M141.614 19.5473C139.535 19.5473 138.189 17.9982 138.189 15.892C138.189 13.6906 139.562 12.1279 141.736 12.1279C143.788 12.1279 145.16 13.6091 145.16 15.7697C145.16 17.9846 143.747 19.5473 141.614 19.5473ZM141.682 13.283C140.54 13.283 139.806 14.3565 139.806 15.8376C139.806 17.3052 140.554 18.3651 141.668 18.3651C142.782 18.3651 143.53 17.2237 143.53 15.7968C143.516 14.3565 142.796 13.283 141.682 13.283Z" fill="white"/>
<path d="M153.653 19.3843H152.077V15.2941C152.077 14.0304 151.588 13.4053 150.637 13.4053C149.699 13.4053 149.06 14.207 149.06 15.1446V19.3707H147.484V14.3021C147.484 13.6771 147.47 12.9976 147.43 12.2639H148.816L148.884 13.3645H148.924C149.346 12.6036 150.215 12.1144 151.18 12.1144C152.675 12.1144 153.653 13.2558 153.653 15.1175V19.3843Z" fill="white"/>
<path d="M163.993 13.4596H162.254V16.9111C162.254 17.7944 162.566 18.2292 163.178 18.2292C163.45 18.2292 163.694 18.202 163.884 18.1613L163.925 19.3571C163.613 19.4794 163.205 19.5337 162.702 19.5337C161.452 19.5337 160.718 18.8407 160.718 17.047V13.4596H159.686V12.2774H160.718V10.9729L162.267 10.4973V12.2638H164.007V13.4596" fill="white"/>
<path d="M172.365 19.3842H170.788V15.3213C170.788 14.0439 170.299 13.4053 169.348 13.4053C168.533 13.4053 167.772 13.9624 167.772 15.0903V19.3707H166.195V9.00256H167.772V13.2694H167.799C168.302 12.4948 169.008 12.1144 169.932 12.1144C171.441 12.1144 172.365 13.283 172.365 15.1446V19.3842Z" fill="white"/>
<path d="M180.436 16.2046H175.694C175.721 17.5499 176.618 18.3109 177.936 18.3109C178.643 18.3109 179.281 18.1886 179.852 17.9712L180.097 19.0718C179.431 19.3708 178.643 19.5067 177.719 19.5067C175.49 19.5067 174.172 18.107 174.172 15.9193C174.172 13.7451 175.517 12.1009 177.542 12.1009C179.349 12.1009 180.504 13.4462 180.504 15.4845C180.504 15.7698 180.491 16.0144 180.436 16.2046ZM178.996 15.0768C178.996 13.9761 178.439 13.2016 177.433 13.2016C176.523 13.2016 175.803 13.9897 175.707 15.0768H178.996Z" fill="white"/>
<defs>
<linearGradient id="paint0_linear" x1="106" y1="0.5" x2="106" y2="60.5" gradientUnits="userSpaceOnUse">
<stop stop-color="#313437"/>
<stop offset="1"/>
</linearGradient>
</defs>
</svg>
