<svg width="18" height="18" viewBox="0 0 18 18" fill="none" xmlns="http://www.w3.org/2000/svg">
<path d="M17.6486 0.351436C17.4235 0.126412 17.1182 0 16.8 0C16.4817 0 16.1765 0.126412 15.9514 0.351436L8.99952 7.30331L2.04764 0.351436C1.82249 0.126827 1.51739 0.000774724 1.19936 0.000967369C0.881326 0.00116001 0.576377 0.127582 0.351496 0.352463C0.126615 0.577344 0.000192866 0.882293 2.2049e-07 1.20032C-0.000192425 1.51835 0.12586 1.82345 0.350469 2.04861L7.30234 9.00048L0.350469 15.9524C0.12586 16.1775 -0.000192425 16.4826 2.2049e-07 16.8006C0.000192866 17.1187 0.126615 17.4236 0.351496 17.6485C0.576377 17.8734 0.881326 17.9998 1.19936 18C1.51739 18.0002 1.82249 17.8741 2.04764 17.6495L8.99952 10.6977L15.9514 17.6495C16.1765 17.8741 16.4816 18.0002 16.7997 18C17.1177 17.9998 17.4227 17.8734 17.6475 17.6485C17.8724 17.4236 17.9988 17.1187 17.999 16.8006C17.9992 16.4826 17.8732 16.1775 17.6486 15.9524L10.6967 9.00048L17.6486 2.04861C17.76 1.93717 17.8484 1.80488 17.9087 1.65928C17.969 1.51368 18.0001 1.35762 18.0001 1.20002C18.0001 1.04242 17.969 0.886369 17.9087 0.740768C17.8484 0.595167 17.76 0.462872 17.6486 0.351436Z" fill="white"/>
</svg>
