<svg width="40" height="40" viewBox="0 0 40 40" fill="none" xmlns="http://www.w3.org/2000/svg">
<circle cx="20" cy="20" r="20" fill="#27292A"/>
<path d="M14.5593 8.07983C10.5455 8.07983 7.2793 11.346 7.2793 15.3598V25.4398C7.2793 29.4536 10.5455 32.7198 14.5593 32.7198H24.6393C28.6531 32.7198 31.9193 29.4536 31.9193 25.4398V15.3598C31.9193 11.346 28.6531 8.07983 24.6393 8.07983H14.5593ZM14.5593 9.19983H24.6393C28.0477 9.19983 30.7993 11.9514 30.7993 15.3598V25.4398C30.7993 28.8483 28.0477 31.5998 24.6393 31.5998H14.5593C11.1509 31.5998 8.3993 28.8483 8.3993 25.4398V15.3598C8.3993 11.9514 11.1509 9.19983 14.5593 9.19983ZM26.3193 12.5598C26.0223 12.5598 25.7374 12.6778 25.5273 12.8879C25.3173 13.0979 25.1993 13.3828 25.1993 13.6798C25.1993 13.9769 25.3173 14.2618 25.5273 14.4718C25.7374 14.6818 26.0223 14.7998 26.3193 14.7998C26.6163 14.7998 26.9012 14.6818 27.1113 14.4718C27.3213 14.2618 27.4393 13.9769 27.4393 13.6798C27.4393 13.3828 27.3213 13.0979 27.1113 12.8879C26.9012 12.6778 26.6163 12.5598 26.3193 12.5598ZM19.5993 14.2398C16.2039 14.2398 13.4393 17.0044 13.4393 20.3998C13.4393 23.7953 16.2039 26.5598 19.5993 26.5598C22.9947 26.5598 25.7593 23.7953 25.7593 20.3998C25.7593 17.0044 22.9947 14.2398 19.5993 14.2398ZM19.5993 15.3598C22.3894 15.3598 24.6393 17.6097 24.6393 20.3998C24.6393 23.19 22.3894 25.4398 19.5993 25.4398C16.8091 25.4398 14.5593 23.19 14.5593 20.3998C14.5593 17.6097 16.8091 15.3598 19.5993 15.3598Z" fill="white"/>
</svg>
