<svg width="123" height="36" viewBox="0 0 123 36" fill="none" xmlns="http://www.w3.org/2000/svg">
<path fill-rule="evenodd" clip-rule="evenodd" d="M8.37143 16.2845C6.90002 18.4803 7.20827 21.1734 10.1308 21.6774C12.2502 22.0396 15.6385 21.2544 20.2979 19.3173C20.5702 19.2048 20.8447 19.0878 21.1259 18.9686C16.2527 22.8743 11.7305 24.7417 7.56149 24.5707C3.69398 24.4065 -0.279282 22.7663 0.0154498 18.2284C0.721906 7.36829 19.4835 0.0539966 28.9329 0C26.2331 0.931442 23.603 2.05412 21.0629 3.35904C23.0315 3.1093 25.0226 3.0868 26.998 3.28704C24.188 4.10824 21.4656 5.20393 18.8693 6.55609C20.8334 6.07687 22.8448 5.80913 24.8652 5.75514C19.551 7.42228 11.5865 11.4968 8.37143 16.2845ZM27.0228 19.7133C28.4897 17.5174 28.186 14.8243 25.2634 14.3204C23.0945 13.9469 19.5982 14.7771 14.7745 16.8109L14.4326 16.9572L14.2728 17.0247L14.4191 16.9099C14.518 16.8312 14.6193 16.7525 14.7183 16.676C14.806 16.6085 14.8938 16.541 14.977 16.4757C15.139 16.3475 15.301 16.226 15.463 16.1067C15.4765 16.0977 15.49 16.0865 15.5035 16.0775C19.9087 12.8152 24.0215 11.265 27.8372 11.427C31.7047 11.5913 35.678 13.2314 35.3833 17.7694C34.6768 28.6295 15.9152 35.9438 6.46806 36C9.16789 35.0686 11.798 33.9459 14.3381 32.641C12.3672 32.8907 10.3738 32.9132 8.39618 32.713C11.2062 31.8895 13.9286 30.7961 16.5249 29.4439C14.5608 29.9231 12.5494 30.1909 10.5291 30.2426C15.8432 28.5755 23.8055 24.5077 27.0228 19.7133Z" fill="url(#paint0_linear)"/>
<path d="M54.5987 20.71C54.5987 19.981 54.3399 19.4141 53.8202 19.0068C53.3095 18.5996 52.4073 18.1789 51.1137 17.7447C49.82 17.3104 48.7625 16.8897 47.9413 16.4825C45.2685 15.1686 43.9321 13.3619 43.9321 11.0648C43.9321 9.91965 44.2628 8.91397 44.9243 8.04327C45.5948 7.16358 46.5397 6.48412 47.7569 6.0004C48.974 5.50769 50.3442 5.26245 51.8651 5.26245C53.3478 5.26245 54.6752 5.52793 55.8451 6.05665C57.0263 6.58537 57.942 7.34357 58.5922 8.32676C59.2447 9.30095 59.5686 10.4169 59.5686 11.6746H54.6099C54.6099 10.8331 54.3512 10.1806 53.8315 9.71717C53.3208 9.2537 52.6278 9.02196 51.7504 9.02196C50.8617 9.02196 50.1597 9.21995 49.64 9.61818C49.1293 10.0052 48.875 10.5024 48.875 11.1076C48.875 11.6363 49.1585 12.12 49.7255 12.5542C50.2925 12.9795 51.2892 13.4249 52.7133 13.8884C54.1397 14.3429 55.3096 14.8333 56.2253 15.3643C58.455 16.6512 59.5686 18.4241 59.5686 20.683C59.5686 22.4896 58.8892 23.907 57.528 24.9375C56.1668 25.9679 54.3039 26.4831 51.9326 26.4831C50.2609 26.4831 48.7446 26.1861 47.3856 25.5899C46.0357 24.9847 45.0165 24.1613 44.3258 23.1218C43.6464 22.0712 43.3066 20.8675 43.3066 19.5041H48.2923C48.2923 20.611 48.5758 21.4277 49.1428 21.9586C49.7188 22.4784 50.6479 22.7394 51.9326 22.7394C52.7538 22.7394 53.4018 22.5639 53.872 22.2151C54.3579 21.8552 54.5987 21.3534 54.5987 20.71Z" fill="white"/>
<path d="M74.5584 19.9023L76.1018 10.8533H80.678L77.067 26.2019H73.0308L70.4952 17.0944L67.9461 26.2019H63.9099L60.2988 10.8533H64.875L66.3914 20.116L68.8281 10.8533H72.1578L74.5584 19.9023Z" fill="white"/>
<path d="M86.8524 26.1997H82.0647V10.8511H86.8524V26.1997ZM81.7812 6.89362C81.7812 6.21191 82.0265 5.65395 82.5192 5.21973C83.0097 4.7855 83.6486 4.56726 84.4316 4.56726C85.2145 4.56726 85.8535 4.7855 86.344 5.21973C86.8344 5.65395 87.0797 6.21191 87.0797 6.89362C87.0797 7.57533 86.8344 8.13329 86.344 8.56751C85.8535 9.00173 85.2145 9.21997 84.4316 9.21997C83.6486 9.21997 83.0097 9.00173 82.5192 8.56751C82.0287 8.13329 81.7812 7.57533 81.7812 6.89362Z" fill="white"/>
<path d="M90.2818 26.1996V14.1719H88.0566V10.8533H90.2818V9.63391C90.2818 7.88352 90.797 6.52685 91.8252 5.56391C92.8533 4.60097 94.3 4.11725 96.1606 4.11725C96.8401 4.11725 97.587 4.21624 98.3992 4.41423L98.4128 7.93301C98.1203 7.84752 97.7288 7.80477 97.2383 7.80477C95.7939 7.80477 95.0717 8.42798 95.0717 9.67666V10.8533H98.0595V14.1719H95.0717V26.1996H90.2818Z" fill="white"/>
<path d="M104.718 7.03533V10.8511H107.24V14.1696H104.718V21.1914C104.718 21.7674 104.821 22.1701 105.028 22.3974C105.235 22.6246 105.647 22.7371 106.261 22.7371C106.733 22.7371 107.129 22.7078 107.451 22.6516V26.0691C106.592 26.3436 105.694 26.4809 104.76 26.4809C103.118 26.4809 101.903 26.0939 101.12 25.3177C100.337 24.5415 99.9434 23.3648 99.9434 21.7854V14.1674H97.9883V10.8488H99.9434V7.03308H104.718V7.03533Z" fill="white"/>
<path d="M114.677 19.504L117.226 10.8511H122.34L116.092 28.7667L115.825 29.4192C114.936 31.4058 113.37 32.398 111.122 32.398C110.499 32.398 109.842 32.3035 109.154 32.1145V28.697H109.777C110.448 28.697 110.958 28.598 111.307 28.4C111.665 28.211 111.93 27.8668 112.101 27.365L112.484 26.3436L107.158 10.8533H112.259L114.677 19.504Z" fill="white"/>
<defs>
<linearGradient id="paint0_linear" x1="-0.146922" y1="0.15173" x2="35.2202" y2="35.5189" gradientUnits="userSpaceOnUse">
<stop offset="0.1991" stop-color="#FF3364"/>
<stop offset="0.5104" stop-color="#BB34FF"/>
<stop offset="0.8072" stop-color="#3586FF"/>
</linearGradient>
</defs>
</svg>
