<svg width="22" height="22" viewBox="0 0 22 22" fill="none" xmlns="http://www.w3.org/2000/svg">
<path d="M1.75464 20.8088C1.81874 20.9285 1.93614 21 2.06058 21C2.08241 21 2.10425 20.9975 2.12632 20.9929C2.30453 20.9563 6.42451 20.0792 8.11482 17.0762H18.834C20.0284 17.0762 21 16.0242 21 14.7308V3.34564C21 2.05228 20.0284 1 18.834 1H3.166C1.97182 1 1 2.05228 1 3.34564V14.7311C1 16.0244 1.97182 17.0764 3.166 17.0764H3.65602C3.36699 17.877 2.81263 19.0801 1.7922 20.3678C1.69453 20.4914 1.6795 20.6681 1.75464 20.8088Z" stroke="#C0C0C0"/>
</svg>
