<svg width="20" height="20" viewBox="0 0 20 20" fill="none" xmlns="http://www.w3.org/2000/svg">
<path d="M10.0102 10.8333C8.93778 10.8333 7.88943 10.5157 6.99773 9.92046C6.10604 9.32527 5.41104 8.4793 5.00064 7.48954C4.59024 6.49977 4.48286 5.41066 4.69208 4.35993C4.9013 3.3092 5.41773 2.34404 6.17605 1.58651C6.93438 0.828973 7.90054 0.313085 8.95237 0.104082C10.0042 -0.104921 11.0944 0.00234696 12.0852 0.412322C13.076 0.822296 13.9229 1.51656 14.5187 2.40733C15.1145 3.2981 15.4325 4.34535 15.4325 5.41667C15.4325 6.85326 14.8612 8.23101 13.8444 9.24683C12.8275 10.2627 11.4483 10.8333 10.0102 10.8333ZM10.0102 0.833336C9.10277 0.833336 8.2157 1.10214 7.46119 1.60577C6.70668 2.10939 6.11861 2.82521 5.77134 3.6627C5.42408 4.5002 5.33322 5.42175 5.51025 6.31083C5.68729 7.19991 6.12426 8.01658 6.76592 8.65757C7.40758 9.29856 8.2251 9.73508 9.11511 9.91193C10.0051 10.0888 10.9276 9.99802 11.766 9.65111C12.6044 9.30421 13.3209 8.71676 13.8251 7.96303C14.3292 7.20931 14.5983 6.32317 14.5983 5.41667C14.5983 4.20109 14.1149 3.0353 13.2545 2.17576C12.3941 1.31622 11.2271 0.833336 10.0102 0.833336Z" fill="#C0C0C0"/>
<path d="M19.5829 19.9994H0.417101C0.306479 19.9994 0.200388 19.9555 0.122166 19.8774C0.0439445 19.7992 0 19.6933 0 19.5827C0.11754 17.0123 1.22245 14.586 3.08494 12.8085C4.94744 11.031 7.42415 10.0391 10 10.0391C12.5758 10.0391 15.0526 11.031 16.9151 12.8085C18.7775 14.586 19.8825 17.0123 20 19.5827C20 19.6933 19.9561 19.7992 19.8778 19.8774C19.7996 19.9555 19.6935 19.9994 19.5829 19.9994ZM0.863399 19.1661H19.1366C18.9244 16.8921 17.87 14.7792 16.1801 13.241C14.4901 11.7029 12.2862 10.8504 10 10.8504C7.71378 10.8504 5.50991 11.7029 3.81994 13.241C2.12997 14.7792 1.07563 16.8921 0.863399 19.1661Z" fill="#C0C0C0"/>
</svg>
